solid OpenSCAD_Model
  facet normal 0.8660254039450545 0 0.4999999997218053
    outer loop
      vertex 0.8660254031419754 13.6 1.5
      vertex 1.7320508062839508 -13.6 0
      vertex 1.7320508062839508 13.6 0
    endloop
  endfacet
  facet normal 0.8660254039450545 0 0.4999999997218053
    outer loop
      vertex 0.8660254031419754 13.6 1.5
      vertex 0.8660254031419754 -13.6 1.5
      vertex 1.7320508062839508 -13.6 0
    endloop
  endfacet
  facet normal 0 0 1
    outer loop
      vertex -0.8660254031419754 13.6 1.5
      vertex 0.8660254031419754 -13.6 1.5
      vertex 0.8660254031419754 13.6 1.5
    endloop
  endfacet
  facet normal 0 0 1
    outer loop
      vertex -0.8660254031419754 13.6 1.5
      vertex -0.8660254031419754 -13.6 1.5
      vertex 0.8660254031419754 -13.6 1.5
    endloop
  endfacet
  facet normal -0.8660254039450545 0 0.4999999997218053
    outer loop
      vertex -1.7320508062839508 13.6 0
      vertex -0.8660254031419754 -13.6 1.5
      vertex -0.8660254031419754 13.6 1.5
    endloop
  endfacet
  facet normal -0.8660254039450545 0 0.4999999997218053
    outer loop
      vertex -1.7320508062839508 13.6 0
      vertex -1.7320508062839508 -13.6 0
      vertex -0.8660254031419754 -13.6 1.5
    endloop
  endfacet
  facet normal -0.8660254039450545 0 -0.4999999997218053
    outer loop
      vertex -0.8660254031419754 13.6 -1.5
      vertex -1.7320508062839508 -13.6 0
      vertex -1.7320508062839508 13.6 0
    endloop
  endfacet
  facet normal -0.8660254039450545 0 -0.4999999997218053
    outer loop
      vertex -0.8660254031419754 13.6 -1.5
      vertex -0.8660254031419754 -13.6 -1.5
      vertex -1.7320508062839508 -13.6 0
    endloop
  endfacet
  facet normal 0 0 -1
    outer loop
      vertex 0.8660254031419754 13.6 -1.5
      vertex -0.8660254031419754 -13.6 -1.5
      vertex -0.8660254031419754 13.6 -1.5
    endloop
  endfacet
  facet normal 0 0 -1
    outer loop
      vertex 0.8660254031419754 13.6 -1.5
      vertex 0.8660254031419754 -13.6 -1.5
      vertex -0.8660254031419754 -13.6 -1.5
    endloop
  endfacet
  facet normal 0.8660254039450545 0 -0.4999999997218053
    outer loop
      vertex 1.7320508062839508 13.6 0
      vertex 0.8660254031419754 -13.6 -1.5
      vertex 0.8660254031419754 13.6 -1.5
    endloop
  endfacet
  facet normal 0.8660254039450545 0 -0.4999999997218053
    outer loop
      vertex 1.7320508062839508 13.6 0
      vertex 1.7320508062839508 -13.6 0
      vertex 0.8660254031419754 -13.6 -1.5
    endloop
  endfacet
  facet normal 0 1 0
    outer loop
      vertex 0.8660254031419754 13.6 -1.5
      vertex 0.8660254031419754 13.6 1.5
      vertex 1.7320508062839508 13.6 0
    endloop
  endfacet
  facet normal 0 1 0
    outer loop
      vertex 0.8660254031419754 13.6 -1.5
      vertex -0.8660254031419754 13.6 -1.5
      vertex 0.8660254031419754 13.6 1.5
    endloop
  endfacet
  facet normal 0 1 0
    outer loop
      vertex -0.8660254031419754 13.6 -1.5
      vertex -0.8660254031419754 13.6 1.5
      vertex 0.8660254031419754 13.6 1.5
    endloop
  endfacet
  facet normal 0 1 0
    outer loop
      vertex -0.8660254031419754 13.6 -1.5
      vertex -1.7320508062839508 13.6 0
      vertex -0.8660254031419754 13.6 1.5
    endloop
  endfacet
  facet normal 0 -1 0
    outer loop
      vertex 1.7320508062839508 -13.6 0
      vertex 0.8660254031419754 -13.6 1.5
      vertex 0.8660254031419754 -13.6 -1.5
    endloop
  endfacet
  facet normal 0 -1 0
    outer loop
      vertex 0.8660254031419754 -13.6 1.5
      vertex -0.8660254031419754 -13.6 -1.5
      vertex 0.8660254031419754 -13.6 -1.5
    endloop
  endfacet
  facet normal 0 -1 0
    outer loop
      vertex 0.8660254031419754 -13.6 1.5
      vertex -0.8660254031419754 -13.6 1.5
      vertex -0.8660254031419754 -13.6 -1.5
    endloop
  endfacet
  facet normal 0 -1 0
    outer loop
      vertex -0.8660254031419754 -13.6 1.5
      vertex -1.7320508062839508 -13.6 0
      vertex -0.8660254031419754 -13.6 -1.5
    endloop
  endfacet
endsolid OpenSCAD_Model
