solid OpenSCAD_Model
  facet normal 0 0 -1
    outer loop
      vertex -1.6272187738797506 -1.9827718128754204 -2.01
      vertex -1.8137288937434946 -1.8137288937434946 -2.01
      vertex -0.9035531729459763 -1.5649999976158142 -2.01
    endloop
  endfacet
  facet normal 0 0 -1
    outer loop
      vertex -1.6272187738797506 -1.9827718128754204 -2.01
      vertex -0.9035531729459763 -1.5649999976158142 -2.01
      vertex -1.4250376476952795 -2.1327195555560285 -2.01
    endloop
  endfacet
  facet normal -0.7409511253549598 -0.6715589548470176 0
    outer loop
      vertex -1.9827718128754204 -1.6272187738797506 -2.01
      vertex -1.8137288937434946 -1.8137288937434946 -2.01
      vertex -1.9827718128754204 -1.6272187738797506 2.01
    endloop
  endfacet
  facet normal -0.8032075314806449 -0.5956993044924331 0
    outer loop
      vertex -1.9827718128754204 -1.6272187738797506 -2.01
      vertex -2.1327195555560285 -1.4250376476952795 2.01
      vertex -2.1327195555560285 -1.4250376476952795 -2.01
    endloop
  endfacet
  facet normal -0.6715589548470176 -0.7409511253549598 0
    outer loop
      vertex -1.6272187738797506 -1.9827718128754204 -2.01
      vertex -1.6272187738797506 -1.9827718128754204 2.01
      vertex -1.8137288937434946 -1.8137288937434946 -2.01
    endloop
  endfacet
  facet normal -0.5956993044924331 -0.8032075314806449 0
    outer loop
      vertex -1.6272187738797506 -1.9827718128754204 -2.01
      vertex -1.4250376476952795 -2.1327195555560285 -2.01
      vertex -1.4250376476952795 -2.1327195555560285 2.01
    endloop
  endfacet
  facet normal 0 0 -1
    outer loop
      vertex -2.2621280430535307 -1.209132629958684 -2.01
      vertex -2.3697510008914504 -0.9815830040164553 -2.01
      vertex -2.2621280430535307 1.209132629958684 -2.01
    endloop
  endfacet
  facet normal 0 0 -1
    outer loop
      vertex -2.4545519611531157 -0.7445801971576959 -2.01
      vertex -2.515714244234286 -0.5004066759713689 -2.01
      vertex -2.4545519611531157 0.7445801971576959 -2.01
    endloop
  endfacet
  facet normal 0 0 -1
    outer loop
      vertex -2.515714244234286 -0.5004066759713689 -2.01
      vertex -2.552648823914185 -0.2514139649453229 -2.01
      vertex -2.515714244234286 0.5004066759713689 -2.01
    endloop
  endfacet
  facet normal 0 0 -1
    outer loop
      vertex -2.3697510008914504 -0.9815830040164553 -2.01
      vertex -2.4545519611531157 -0.7445801971576959 -2.01
      vertex -2.3697510008914504 0.9815830040164553 -2.01
    endloop
  endfacet
  facet normal 0 0 -1
    outer loop
      vertex -2.1327195555560285 -1.4250376476952795 -2.01
      vertex -2.2621280430535307 -1.209132629958684 -2.01
      vertex -2.1327195555560285 1.4250376476952795 -2.01
    endloop
  endfacet
  facet normal 0 0 -1
    outer loop
      vertex -1.9827718128754204 -1.6272187738797506 -2.01
      vertex -2.1327195555560285 -1.4250376476952795 -2.01
      vertex -1.9827718128754204 1.6272187738797506 -2.01
    endloop
  endfacet
  facet normal 0 0 -1
    outer loop
      vertex -1.8137288937434946 -1.8137288937434946 -2.01
      vertex -1.8071063458919525 0 -2.01
      vertex -0.9035531729459763 -1.5649999976158142 -2.01
    endloop
  endfacet
  facet normal 0 0 -1
    outer loop
      vertex -1.9827718128754204 -1.6272187738797506 -2.01
      vertex -1.8137288937434946 1.8137288937434946 -2.01
      vertex -1.8137288937434946 -1.8137288937434946 -2.01
    endloop
  endfacet
  facet normal -0.9039892931234436 -0.42755509343028164 0
    outer loop
      vertex -2.2621280430535307 -1.209132629958684 -2.01
      vertex -2.3697510008914504 -0.9815830040164553 2.01
      vertex -2.3697510008914504 -0.9815830040164553 -2.01
    endloop
  endfacet
  facet normal -0.9415440651830208 -0.33688985339222016 0
    outer loop
      vertex -2.3697510008914504 -0.9815830040164553 -2.01
      vertex -2.4545519611531157 -0.7445801971576959 2.01
      vertex -2.4545519611531157 -0.7445801971576959 -2.01
    endloop
  endfacet
  facet normal -0.857728610000272 -0.5141027441932222 0
    outer loop
      vertex -2.1327195555560285 -1.4250376476952795 -2.01
      vertex -2.2621280430535307 -1.209132629958684 2.01
      vertex -2.2621280430535307 -1.209132629958684 -2.01
    endloop
  endfacet
  facet normal -0.9700312531945439 -0.2429801799032642 0
    outer loop
      vertex -2.4545519611531157 -0.7445801971576959 -2.01
      vertex -2.515714244234286 -0.5004066759713689 2.01
      vertex -2.515714244234286 -0.5004066759713689 -2.01
    endloop
  endfacet
  facet normal -0.989176509964781 -0.14673047445536125 0
    outer loop
      vertex -2.515714244234286 -0.5004066759713689 -2.01
      vertex -2.552648823914185 -0.2514139649453229 2.01
      vertex -2.552648823914185 -0.2514139649453229 -2.01
    endloop
  endfacet
  facet normal -0.9987954562051724 -0.04906767432741824 0
    outer loop
      vertex -2.552648823914185 -0.2514139649453229 -2.01
      vertex -2.565 0 2.01
      vertex -2.565 0 -2.01
    endloop
  endfacet
  facet normal 0 0 -1
    outer loop
      vertex -1.4250376476952795 -2.1327195555560285 -2.01
      vertex -0.9035531729459763 -1.5649999976158142 -2.01
      vertex -1.209132629958684 -2.2621280430535307 -2.01
    endloop
  endfacet
  facet normal 0 0 -1
    outer loop
      vertex -1.209132629958684 -2.2621280430535307 -2.01
      vertex -0.9035531729459763 -1.5649999976158142 -2.01
      vertex -0.9815830040164553 -2.3697510008914504 -2.01
    endloop
  endfacet
  facet normal 0 0 -1
    outer loop
      vertex -0.9815830040164553 -2.3697510008914504 -2.01
      vertex 0.9035531729459763 -1.5649999976158142 -2.01
      vertex -0.7445801971576959 -2.4545519611531157 -2.01
    endloop
  endfacet
  facet normal 0 0 -1
    outer loop
      vertex -0.7445801971576959 -2.4545519611531157 -2.01
      vertex 0.9035531729459763 -1.5649999976158142 -2.01
      vertex -0.5004066759713689 -2.515714244234286 -2.01
    endloop
  endfacet
  facet normal 0 0 -1
    outer loop
      vertex -0.9815830040164553 -2.3697510008914504 -2.01
      vertex -0.9035531729459763 -1.5649999976158142 -2.01
      vertex 0.9035531729459763 -1.5649999976158142 -2.01
    endloop
  endfacet
  facet normal -0.42755509343028164 -0.9039892931234436 0
    outer loop
      vertex -1.209132629958684 -2.2621280430535307 -2.01
      vertex -0.9815830040164553 -2.3697510008914504 -2.01
      vertex -0.9815830040164553 -2.3697510008914504 2.01
    endloop
  endfacet
  facet normal -0.5141027441932222 -0.857728610000272 0
    outer loop
      vertex -1.4250376476952795 -2.1327195555560285 -2.01
      vertex -1.209132629958684 -2.2621280430535307 -2.01
      vertex -1.209132629958684 -2.2621280430535307 2.01
    endloop
  endfacet
  facet normal -0.33688985339222016 -0.9415440651830208 0
    outer loop
      vertex -0.9815830040164553 -2.3697510008914504 -2.01
      vertex -0.7445801971576959 -2.4545519611531157 -2.01
      vertex -0.7445801971576959 -2.4545519611531157 2.01
    endloop
  endfacet
  facet normal -0.2429801799032642 -0.9700312531945439 0
    outer loop
      vertex -0.7445801971576959 -2.4545519611531157 -2.01
      vertex -0.5004066759713689 -2.515714244234286 -2.01
      vertex -0.5004066759713689 -2.515714244234286 2.01
    endloop
  endfacet
  facet normal -0.14673047445536125 -0.989176509964781 0
    outer loop
      vertex -0.5004066759713689 -2.515714244234286 -2.01
      vertex -0.2514139649453229 -2.552648823914185 -2.01
      vertex -0.2514139649453229 -2.552648823914185 2.01
    endloop
  endfacet
  facet normal -0.04906767432741824 -0.9987954562051724 0
    outer loop
      vertex -0.2514139649453229 -2.552648823914185 -2.01
      vertex 0 -2.565 -2.01
      vertex 0 -2.565 2.01
    endloop
  endfacet
  facet normal -0.857728610000272 -0.5141027441932222 0
    outer loop
      vertex -2.1327195555560285 -1.4250376476952795 -2.01
      vertex -2.1327195555560285 -1.4250376476952795 2.01
      vertex -2.2621280430535307 -1.209132629958684 2.01
    endloop
  endfacet
  facet normal -0.8032075314806449 -0.5956993044924331 0
    outer loop
      vertex -1.9827718128754204 -1.6272187738797506 -2.01
      vertex -1.9827718128754204 -1.6272187738797506 2.01
      vertex -2.1327195555560285 -1.4250376476952795 2.01
    endloop
  endfacet
  facet normal -0.5956993044924331 -0.8032075314806449 0
    outer loop
      vertex -1.6272187738797506 -1.9827718128754204 -2.01
      vertex -1.4250376476952795 -2.1327195555560285 2.01
      vertex -1.6272187738797506 -1.9827718128754204 2.01
    endloop
  endfacet
  facet normal -0.5141027441932222 -0.857728610000272 0
    outer loop
      vertex -1.4250376476952795 -2.1327195555560285 -2.01
      vertex -1.209132629958684 -2.2621280430535307 2.01
      vertex -1.4250376476952795 -2.1327195555560285 2.01
    endloop
  endfacet
  facet normal -0.7409511253549598 -0.6715589548470176 0
    outer loop
      vertex -1.8137288937434946 -1.8137288937434946 -2.01
      vertex -1.8137288937434946 -1.8137288937434946 2.01
      vertex -1.9827718128754204 -1.6272187738797506 2.01
    endloop
  endfacet
  facet normal -0.6715589548470176 -0.7409511253549598 0
    outer loop
      vertex -1.8137288937434946 -1.8137288937434946 -2.01
      vertex -1.6272187738797506 -1.9827718128754204 2.01
      vertex -1.8137288937434946 -1.8137288937434946 2.01
    endloop
  endfacet
  facet normal 0 0 1
    outer loop
      vertex -1.6272187738797506 -1.9827718128754204 2.01
      vertex -1.4250376476952795 -2.1327195555560285 2.01
      vertex -1.8071063458919525 0 2.01
    endloop
  endfacet
  facet normal 0 0 1
    outer loop
      vertex -1.4250376476952795 -2.1327195555560285 2.01
      vertex -1.209132629958684 -2.2621280430535307 2.01
      vertex -1.8071063458919525 0 2.01
    endloop
  endfacet
  facet normal 0 0 1
    outer loop
      vertex -1.209132629958684 -2.2621280430535307 2.01
      vertex -0.9815830040164553 -2.3697510008914504 2.01
      vertex -1.8071063458919525 0 2.01
    endloop
  endfacet
  facet normal -0.9039892931234436 -0.42755509343028164 0
    outer loop
      vertex -2.2621280430535307 -1.209132629958684 -2.01
      vertex -2.2621280430535307 -1.209132629958684 2.01
      vertex -2.3697510008914504 -0.9815830040164553 2.01
    endloop
  endfacet
  facet normal -0.9700312531945439 -0.2429801799032642 0
    outer loop
      vertex -2.4545519611531157 -0.7445801971576959 -2.01
      vertex -2.4545519611531157 -0.7445801971576959 2.01
      vertex -2.515714244234286 -0.5004066759713689 2.01
    endloop
  endfacet
  facet normal -0.9415440651830208 -0.33688985339222016 0
    outer loop
      vertex -2.3697510008914504 -0.9815830040164553 -2.01
      vertex -2.3697510008914504 -0.9815830040164553 2.01
      vertex -2.4545519611531157 -0.7445801971576959 2.01
    endloop
  endfacet
  facet normal -0.989176509964781 -0.14673047445536125 0
    outer loop
      vertex -2.515714244234286 -0.5004066759713689 -2.01
      vertex -2.515714244234286 -0.5004066759713689 2.01
      vertex -2.552648823914185 -0.2514139649453229 2.01
    endloop
  endfacet
  facet normal -0.9987954562051724 -0.04906767432741824 0
    outer loop
      vertex -2.552648823914185 -0.2514139649453229 -2.01
      vertex -2.552648823914185 -0.2514139649453229 2.01
      vertex -2.565 0 2.01
    endloop
  endfacet
  facet normal 0 0 1
    outer loop
      vertex -2.3697510008914504 -0.9815830040164553 2.01
      vertex -2.4545519611531157 0.7445801971576959 2.01
      vertex -2.4545519611531157 -0.7445801971576959 2.01
    endloop
  endfacet
  facet normal 0 0 1
    outer loop
      vertex -2.2621280430535307 -1.209132629958684 2.01
      vertex -2.3697510008914504 0.9815830040164553 2.01
      vertex -2.3697510008914504 -0.9815830040164553 2.01
    endloop
  endfacet
  facet normal 0 0 1
    outer loop
      vertex -2.4545519611531157 -0.7445801971576959 2.01
      vertex -2.515714244234286 0.5004066759713689 2.01
      vertex -2.515714244234286 -0.5004066759713689 2.01
    endloop
  endfacet
  facet normal 0 0 1
    outer loop
      vertex -2.515714244234286 -0.5004066759713689 2.01
      vertex -2.552648823914185 0.2514139649453229 2.01
      vertex -2.552648823914185 -0.2514139649453229 2.01
    endloop
  endfacet
  facet normal 0 0 1
    outer loop
      vertex -2.1327195555560285 -1.4250376476952795 2.01
      vertex -2.2621280430535307 1.209132629958684 2.01
      vertex -2.2621280430535307 -1.209132629958684 2.01
    endloop
  endfacet
  facet normal 0 0 1
    outer loop
      vertex -1.9827718128754204 -1.6272187738797506 2.01
      vertex -2.1327195555560285 1.4250376476952795 2.01
      vertex -2.1327195555560285 -1.4250376476952795 2.01
    endloop
  endfacet
  facet normal 0 0 1
    outer loop
      vertex -1.9827718128754204 -1.6272187738797506 2.01
      vertex -1.8137288937434946 -1.8137288937434946 2.01
      vertex -1.9827718128754204 1.6272187738797506 2.01
    endloop
  endfacet
  facet normal 0 0 1
    outer loop
      vertex -1.6272187738797506 -1.9827718128754204 2.01
      vertex -1.8071063458919525 0 2.01
      vertex -1.8137288937434946 -1.8137288937434946 2.01
    endloop
  endfacet
  facet normal -0.42755509343028164 -0.9039892931234436 0
    outer loop
      vertex -1.209132629958684 -2.2621280430535307 -2.01
      vertex -0.9815830040164553 -2.3697510008914504 2.01
      vertex -1.209132629958684 -2.2621280430535307 2.01
    endloop
  endfacet
  facet normal -0.33688985339222016 -0.9415440651830208 0
    outer loop
      vertex -0.9815830040164553 -2.3697510008914504 -2.01
      vertex -0.7445801971576959 -2.4545519611531157 2.01
      vertex -0.9815830040164553 -2.3697510008914504 2.01
    endloop
  endfacet
  facet normal -0.2429801799032642 -0.9700312531945439 0
    outer loop
      vertex -0.7445801971576959 -2.4545519611531157 -2.01
      vertex -0.5004066759713689 -2.515714244234286 2.01
      vertex -0.7445801971576959 -2.4545519611531157 2.01
    endloop
  endfacet
  facet normal -0.14673047445536125 -0.989176509964781 0
    outer loop
      vertex -0.5004066759713689 -2.515714244234286 -2.01
      vertex -0.2514139649453229 -2.552648823914185 2.01
      vertex -0.5004066759713689 -2.515714244234286 2.01
    endloop
  endfacet
  facet normal -0.04906767432741824 -0.9987954562051724 0
    outer loop
      vertex -0.2514139649453229 -2.552648823914185 -2.01
      vertex 0 -2.565 2.01
      vertex -0.2514139649453229 -2.552648823914185 2.01
    endloop
  endfacet
  facet normal 0 0 1
    outer loop
      vertex -0.9815830040164553 -2.3697510008914504 2.01
      vertex -0.7445801971576959 -2.4545519611531157 2.01
      vertex -0.9035531729459763 -1.5649999976158142 2.01
    endloop
  endfacet
  facet normal 0 0 1
    outer loop
      vertex -0.7445801971576959 -2.4545519611531157 2.01
      vertex -0.5004066759713689 -2.515714244234286 2.01
      vertex -0.9035531729459763 -1.5649999976158142 2.01
    endloop
  endfacet
  facet normal 0 0 1
    outer loop
      vertex -0.9815830040164553 -2.3697510008914504 2.01
      vertex -0.9035531729459763 -1.5649999976158142 2.01
      vertex -1.8071063458919525 0 2.01
    endloop
  endfacet
  facet normal 0 0 1
    outer loop
      vertex -0.5004066759713689 -2.515714244234286 2.01
      vertex -0.2514139649453229 -2.552648823914185 2.01
      vertex -0.9035531729459763 -1.5649999976158142 2.01
    endloop
  endfacet
  facet normal 0 0 1
    outer loop
      vertex -0.2514139649453229 -2.552648823914185 2.01
      vertex 0 -2.565 2.01
      vertex -0.9035531729459763 -1.5649999976158142 2.01
    endloop
  endfacet
  facet normal 0 0 1
    outer loop
      vertex 0 -2.565 2.01
      vertex 0.2514139649453229 -2.552648823914185 2.01
      vertex -0.9035531729459763 -1.5649999976158142 2.01
    endloop
  endfacet
  facet normal 0 0 1
    outer loop
      vertex 0.2514139649453229 -2.552648823914185 2.01
      vertex 0.5004066759713689 -2.515714244234286 2.01
      vertex -0.9035531729459763 -1.5649999976158142 2.01
    endloop
  endfacet
  facet normal 0 0 -1
    outer loop
      vertex -2.552648823914185 -0.2514139649453229 -2.01
      vertex -2.565 0 -2.01
      vertex -2.552648823914185 0.2514139649453229 -2.01
    endloop
  endfacet
  facet normal 0 0 -1
    outer loop
      vertex -2.552648823914185 -0.2514139649453229 -2.01
      vertex -2.552648823914185 0.2514139649453229 -2.01
      vertex -2.515714244234286 0.5004066759713689 -2.01
    endloop
  endfacet
  facet normal 0 0 -1
    outer loop
      vertex -2.515714244234286 -0.5004066759713689 -2.01
      vertex -2.515714244234286 0.5004066759713689 -2.01
      vertex -2.4545519611531157 0.7445801971576959 -2.01
    endloop
  endfacet
  facet normal 0 0 -1
    outer loop
      vertex -2.4545519611531157 -0.7445801971576959 -2.01
      vertex -2.4545519611531157 0.7445801971576959 -2.01
      vertex -2.3697510008914504 0.9815830040164553 -2.01
    endloop
  endfacet
  facet normal 0 0 -1
    outer loop
      vertex -2.3697510008914504 -0.9815830040164553 -2.01
      vertex -2.3697510008914504 0.9815830040164553 -2.01
      vertex -2.2621280430535307 1.209132629958684 -2.01
    endloop
  endfacet
  facet normal 0 0 -1
    outer loop
      vertex -2.2621280430535307 -1.209132629958684 -2.01
      vertex -2.2621280430535307 1.209132629958684 -2.01
      vertex -2.1327195555560285 1.4250376476952795 -2.01
    endloop
  endfacet
  facet normal 0 0 -1
    outer loop
      vertex -2.1327195555560285 -1.4250376476952795 -2.01
      vertex -2.1327195555560285 1.4250376476952795 -2.01
      vertex -1.9827718128754204 1.6272187738797506 -2.01
    endloop
  endfacet
  facet normal 0 0 -1
    outer loop
      vertex -1.9827718128754204 -1.6272187738797506 -2.01
      vertex -1.9827718128754204 1.6272187738797506 -2.01
      vertex -1.8137288937434946 1.8137288937434946 -2.01
    endloop
  endfacet
  facet normal 0 0 -1
    outer loop
      vertex -1.8137288937434946 -1.8137288937434946 -2.01
      vertex -1.8137288937434946 1.8137288937434946 -2.01
      vertex -1.8071063458919525 0 -2.01
    endloop
  endfacet
  facet normal 0 0 -1
    outer loop
      vertex -1.8137288937434946 1.8137288937434946 -2.01
      vertex -1.6272187738797506 1.9827718128754204 -2.01
      vertex -1.8071063458919525 0 -2.01
    endloop
  endfacet
  facet normal -0.9987954562051724 0.04906767432741824 0
    outer loop
      vertex -2.565 0 -2.01
      vertex -2.552648823914185 0.2514139649453229 2.01
      vertex -2.552648823914185 0.2514139649453229 -2.01
    endloop
  endfacet
  facet normal -0.989176509964781 0.14673047445536125 0
    outer loop
      vertex -2.552648823914185 0.2514139649453229 -2.01
      vertex -2.515714244234286 0.5004066759713689 2.01
      vertex -2.515714244234286 0.5004066759713689 -2.01
    endloop
  endfacet
  facet normal -0.9700312531945439 0.2429801799032642 0
    outer loop
      vertex -2.515714244234286 0.5004066759713689 -2.01
      vertex -2.4545519611531157 0.7445801971576959 2.01
      vertex -2.4545519611531157 0.7445801971576959 -2.01
    endloop
  endfacet
  facet normal -0.9415440651830208 0.33688985339222016 0
    outer loop
      vertex -2.4545519611531157 0.7445801971576959 -2.01
      vertex -2.3697510008914504 0.9815830040164553 2.01
      vertex -2.3697510008914504 0.9815830040164553 -2.01
    endloop
  endfacet
  facet normal -0.9039892931234436 0.42755509343028164 0
    outer loop
      vertex -2.3697510008914504 0.9815830040164553 -2.01
      vertex -2.2621280430535307 1.209132629958684 2.01
      vertex -2.2621280430535307 1.209132629958684 -2.01
    endloop
  endfacet
  facet normal 0 0 -1
    outer loop
      vertex -1.6272187738797506 1.9827718128754204 -2.01
      vertex -1.4250376476952795 2.1327195555560285 -2.01
      vertex -1.8071063458919525 0 -2.01
    endloop
  endfacet
  facet normal 0 0 -1
    outer loop
      vertex -1.4250376476952795 2.1327195555560285 -2.01
      vertex -1.209132629958684 2.2621280430535307 -2.01
      vertex -1.8071063458919525 0 -2.01
    endloop
  endfacet
  facet normal 0 0 -1
    outer loop
      vertex -1.209132629958684 2.2621280430535307 -2.01
      vertex -0.9815830040164553 2.3697510008914504 -2.01
      vertex -1.8071063458919525 0 -2.01
    endloop
  endfacet
  facet normal -0.857728610000272 0.5141027441932222 0
    outer loop
      vertex -2.2621280430535307 1.209132629958684 -2.01
      vertex -2.1327195555560285 1.4250376476952795 2.01
      vertex -2.1327195555560285 1.4250376476952795 -2.01
    endloop
  endfacet
  facet normal -0.8032075314806449 0.5956993044924331 0
    outer loop
      vertex -2.1327195555560285 1.4250376476952795 -2.01
      vertex -1.9827718128754204 1.6272187738797506 2.01
      vertex -1.9827718128754204 1.6272187738797506 -2.01
    endloop
  endfacet
  facet normal -0.7409511253549598 0.6715589548470176 0
    outer loop
      vertex -1.9827718128754204 1.6272187738797506 -2.01
      vertex -1.8137288937434946 1.8137288937434946 2.01
      vertex -1.8137288937434946 1.8137288937434946 -2.01
    endloop
  endfacet
  facet normal -0.6715589548470176 0.7409511253549598 0
    outer loop
      vertex -1.8137288937434946 1.8137288937434946 -2.01
      vertex -1.8137288937434946 1.8137288937434946 2.01
      vertex -1.6272187738797506 1.9827718128754204 -2.01
    endloop
  endfacet
  facet normal -0.5956993044924331 0.8032075314806449 0
    outer loop
      vertex -1.6272187738797506 1.9827718128754204 -2.01
      vertex -1.6272187738797506 1.9827718128754204 2.01
      vertex -1.4250376476952795 2.1327195555560285 -2.01
    endloop
  endfacet
  facet normal -0.5141027441932222 0.857728610000272 0
    outer loop
      vertex -1.4250376476952795 2.1327195555560285 -2.01
      vertex -1.4250376476952795 2.1327195555560285 2.01
      vertex -1.209132629958684 2.2621280430535307 -2.01
    endloop
  endfacet
  facet normal 0 0 -1
    outer loop
      vertex -0.9815830040164553 2.3697510008914504 -2.01
      vertex -0.9035531729459763 1.5649999976158142 -2.01
      vertex -1.8071063458919525 0 -2.01
    endloop
  endfacet
  facet normal 0 0 -1
    outer loop
      vertex -0.9815830040164553 2.3697510008914504 -2.01
      vertex -0.7445801971576959 2.4545519611531157 -2.01
      vertex -0.9035531729459763 1.5649999976158142 -2.01
    endloop
  endfacet
  facet normal 0 0 -1
    outer loop
      vertex -0.7445801971576959 2.4545519611531157 -2.01
      vertex -0.5004066759713689 2.515714244234286 -2.01
      vertex -0.9035531729459763 1.5649999976158142 -2.01
    endloop
  endfacet
  facet normal 0 0 -1
    outer loop
      vertex -0.5004066759713689 2.515714244234286 -2.01
      vertex -0.2514139649453229 2.552648823914185 -2.01
      vertex -0.9035531729459763 1.5649999976158142 -2.01
    endloop
  endfacet
  facet normal 0 0 -1
    outer loop
      vertex -0.2514139649453229 2.552648823914185 -2.01
      vertex 0 2.565 -2.01
      vertex -0.9035531729459763 1.5649999976158142 -2.01
    endloop
  endfacet
  facet normal 0 0 -1
    outer loop
      vertex 0 2.565 -2.01
      vertex 0.2514139649453229 2.552648823914185 -2.01
      vertex -0.9035531729459763 1.5649999976158142 -2.01
    endloop
  endfacet
  facet normal 0 0 -1
    outer loop
      vertex 0.2514139649453229 2.552648823914185 -2.01
      vertex 0.5004066759713689 2.515714244234286 -2.01
      vertex -0.9035531729459763 1.5649999976158142 -2.01
    endloop
  endfacet
  facet normal -0.42755509343028164 0.9039892931234436 0
    outer loop
      vertex -1.209132629958684 2.2621280430535307 -2.01
      vertex -1.209132629958684 2.2621280430535307 2.01
      vertex -0.9815830040164553 2.3697510008914504 -2.01
    endloop
  endfacet
  facet normal -0.33688985339222016 0.9415440651830208 0
    outer loop
      vertex -0.9815830040164553 2.3697510008914504 -2.01
      vertex -0.9815830040164553 2.3697510008914504 2.01
      vertex -0.7445801971576959 2.4545519611531157 -2.01
    endloop
  endfacet
  facet normal -0.2429801799032642 0.9700312531945439 0
    outer loop
      vertex -0.7445801971576959 2.4545519611531157 -2.01
      vertex -0.7445801971576959 2.4545519611531157 2.01
      vertex -0.5004066759713689 2.515714244234286 -2.01
    endloop
  endfacet
  facet normal -0.14673047445536125 0.989176509964781 0
    outer loop
      vertex -0.5004066759713689 2.515714244234286 -2.01
      vertex -0.5004066759713689 2.515714244234286 2.01
      vertex -0.2514139649453229 2.552648823914185 -2.01
    endloop
  endfacet
  facet normal -0.04906767432741824 0.9987954562051724 0
    outer loop
      vertex -0.2514139649453229 2.552648823914185 -2.01
      vertex -0.2514139649453229 2.552648823914185 2.01
      vertex 0 2.565 -2.01
    endloop
  endfacet
  facet normal -0.9987954562051724 0.04906767432741824 0
    outer loop
      vertex -2.565 0 -2.01
      vertex -2.565 0 2.01
      vertex -2.552648823914185 0.2514139649453229 2.01
    endloop
  endfacet
  facet normal -0.989176509964781 0.14673047445536125 0
    outer loop
      vertex -2.552648823914185 0.2514139649453229 -2.01
      vertex -2.552648823914185 0.2514139649453229 2.01
      vertex -2.515714244234286 0.5004066759713689 2.01
    endloop
  endfacet
  facet normal -0.9700312531945439 0.2429801799032642 0
    outer loop
      vertex -2.515714244234286 0.5004066759713689 -2.01
      vertex -2.515714244234286 0.5004066759713689 2.01
      vertex -2.4545519611531157 0.7445801971576959 2.01
    endloop
  endfacet
  facet normal -0.9415440651830208 0.33688985339222016 0
    outer loop
      vertex -2.4545519611531157 0.7445801971576959 -2.01
      vertex -2.4545519611531157 0.7445801971576959 2.01
      vertex -2.3697510008914504 0.9815830040164553 2.01
    endloop
  endfacet
  facet normal -0.9039892931234436 0.42755509343028164 0
    outer loop
      vertex -2.3697510008914504 0.9815830040164553 -2.01
      vertex -2.3697510008914504 0.9815830040164553 2.01
      vertex -2.2621280430535307 1.209132629958684 2.01
    endloop
  endfacet
  facet normal -0.857728610000272 0.5141027441932222 0
    outer loop
      vertex -2.2621280430535307 1.209132629958684 -2.01
      vertex -2.2621280430535307 1.209132629958684 2.01
      vertex -2.1327195555560285 1.4250376476952795 2.01
    endloop
  endfacet
  facet normal 0 0 1
    outer loop
      vertex -2.552648823914185 -0.2514139649453229 2.01
      vertex -2.552648823914185 0.2514139649453229 2.01
      vertex -2.565 0 2.01
    endloop
  endfacet
  facet normal 0 0 1
    outer loop
      vertex -2.515714244234286 -0.5004066759713689 2.01
      vertex -2.515714244234286 0.5004066759713689 2.01
      vertex -2.552648823914185 0.2514139649453229 2.01
    endloop
  endfacet
  facet normal 0 0 1
    outer loop
      vertex -2.4545519611531157 -0.7445801971576959 2.01
      vertex -2.4545519611531157 0.7445801971576959 2.01
      vertex -2.515714244234286 0.5004066759713689 2.01
    endloop
  endfacet
  facet normal 0 0 1
    outer loop
      vertex -2.3697510008914504 -0.9815830040164553 2.01
      vertex -2.3697510008914504 0.9815830040164553 2.01
      vertex -2.4545519611531157 0.7445801971576959 2.01
    endloop
  endfacet
  facet normal 0 0 1
    outer loop
      vertex -2.2621280430535307 -1.209132629958684 2.01
      vertex -2.2621280430535307 1.209132629958684 2.01
      vertex -2.3697510008914504 0.9815830040164553 2.01
    endloop
  endfacet
  facet normal 0 0 1
    outer loop
      vertex -2.1327195555560285 -1.4250376476952795 2.01
      vertex -2.1327195555560285 1.4250376476952795 2.01
      vertex -2.2621280430535307 1.209132629958684 2.01
    endloop
  endfacet
  facet normal 0 0 1
    outer loop
      vertex -1.9827718128754204 -1.6272187738797506 2.01
      vertex -1.9827718128754204 1.6272187738797506 2.01
      vertex -2.1327195555560285 1.4250376476952795 2.01
    endloop
  endfacet
  facet normal 0 0 1
    outer loop
      vertex -1.8137288937434946 -1.8137288937434946 2.01
      vertex -1.8071063458919525 0 2.01
      vertex -1.8137288937434946 1.8137288937434946 2.01
    endloop
  endfacet
  facet normal 0 0 1
    outer loop
      vertex -1.8137288937434946 -1.8137288937434946 2.01
      vertex -1.8137288937434946 1.8137288937434946 2.01
      vertex -1.9827718128754204 1.6272187738797506 2.01
    endloop
  endfacet
  facet normal 0 0 1
    outer loop
      vertex -1.8137288937434946 1.8137288937434946 2.01
      vertex -1.8071063458919525 0 2.01
      vertex -0.9035531729459763 1.5649999976158142 2.01
    endloop
  endfacet
  facet normal -0.8032075314806449 0.5956993044924331 0
    outer loop
      vertex -2.1327195555560285 1.4250376476952795 -2.01
      vertex -2.1327195555560285 1.4250376476952795 2.01
      vertex -1.9827718128754204 1.6272187738797506 2.01
    endloop
  endfacet
  facet normal -0.7409511253549598 0.6715589548470176 0
    outer loop
      vertex -1.9827718128754204 1.6272187738797506 -2.01
      vertex -1.9827718128754204 1.6272187738797506 2.01
      vertex -1.8137288937434946 1.8137288937434946 2.01
    endloop
  endfacet
  facet normal -0.6715589548470176 0.7409511253549598 0
    outer loop
      vertex -1.6272187738797506 1.9827718128754204 -2.01
      vertex -1.8137288937434946 1.8137288937434946 2.01
      vertex -1.6272187738797506 1.9827718128754204 2.01
    endloop
  endfacet
  facet normal -0.5956993044924331 0.8032075314806449 0
    outer loop
      vertex -1.4250376476952795 2.1327195555560285 -2.01
      vertex -1.6272187738797506 1.9827718128754204 2.01
      vertex -1.4250376476952795 2.1327195555560285 2.01
    endloop
  endfacet
  facet normal 0 0 1
    outer loop
      vertex -1.8137288937434946 1.8137288937434946 2.01
      vertex -0.9035531729459763 1.5649999976158142 2.01
      vertex -1.6272187738797506 1.9827718128754204 2.01
    endloop
  endfacet
  facet normal 0 0 1
    outer loop
      vertex -1.6272187738797506 1.9827718128754204 2.01
      vertex -0.9035531729459763 1.5649999976158142 2.01
      vertex -1.4250376476952795 2.1327195555560285 2.01
    endloop
  endfacet
  facet normal -0.5141027441932222 0.857728610000272 0
    outer loop
      vertex -1.209132629958684 2.2621280430535307 -2.01
      vertex -1.4250376476952795 2.1327195555560285 2.01
      vertex -1.209132629958684 2.2621280430535307 2.01
    endloop
  endfacet
  facet normal -0.42755509343028164 0.9039892931234436 0
    outer loop
      vertex -0.9815830040164553 2.3697510008914504 -2.01
      vertex -1.209132629958684 2.2621280430535307 2.01
      vertex -0.9815830040164553 2.3697510008914504 2.01
    endloop
  endfacet
  facet normal -0.33688985339222016 0.9415440651830208 0
    outer loop
      vertex -0.7445801971576959 2.4545519611531157 -2.01
      vertex -0.9815830040164553 2.3697510008914504 2.01
      vertex -0.7445801971576959 2.4545519611531157 2.01
    endloop
  endfacet
  facet normal -0.2429801799032642 0.9700312531945439 0
    outer loop
      vertex -0.5004066759713689 2.515714244234286 -2.01
      vertex -0.7445801971576959 2.4545519611531157 2.01
      vertex -0.5004066759713689 2.515714244234286 2.01
    endloop
  endfacet
  facet normal -0.14673047445536125 0.989176509964781 0
    outer loop
      vertex -0.2514139649453229 2.552648823914185 -2.01
      vertex -0.5004066759713689 2.515714244234286 2.01
      vertex -0.2514139649453229 2.552648823914185 2.01
    endloop
  endfacet
  facet normal -0.04906767432741824 0.9987954562051724 0
    outer loop
      vertex -0.2514139649453229 2.552648823914185 2.01
      vertex 0 2.565 2.01
      vertex 0 2.565 -2.01
    endloop
  endfacet
  facet normal 0 0 1
    outer loop
      vertex -1.4250376476952795 2.1327195555560285 2.01
      vertex -0.9035531729459763 1.5649999976158142 2.01
      vertex -1.209132629958684 2.2621280430535307 2.01
    endloop
  endfacet
  facet normal 0 0 1
    outer loop
      vertex -1.209132629958684 2.2621280430535307 2.01
      vertex -0.9035531729459763 1.5649999976158142 2.01
      vertex -0.9815830040164553 2.3697510008914504 2.01
    endloop
  endfacet
  facet normal 0 0 1
    outer loop
      vertex -0.9815830040164553 2.3697510008914504 2.01
      vertex -0.9035531729459763 1.5649999976158142 2.01
      vertex 0.9035531729459763 1.5649999976158142 2.01
    endloop
  endfacet
  facet normal 0 0 1
    outer loop
      vertex -0.9815830040164553 2.3697510008914504 2.01
      vertex 0.9035531729459763 1.5649999976158142 2.01
      vertex -0.7445801971576959 2.4545519611531157 2.01
    endloop
  endfacet
  facet normal 0 0 1
    outer loop
      vertex -0.7445801971576959 2.4545519611531157 2.01
      vertex 0.9035531729459763 1.5649999976158142 2.01
      vertex -0.5004066759713689 2.515714244234286 2.01
    endloop
  endfacet
  facet normal 0 0 -1
    outer loop
      vertex -0.5004066759713689 -2.515714244234286 -2.01
      vertex 0.9035531729459763 -1.5649999976158142 -2.01
      vertex -0.2514139649453229 -2.552648823914185 -2.01
    endloop
  endfacet
  facet normal 0 0 -1
    outer loop
      vertex -0.2514139649453229 -2.552648823914185 -2.01
      vertex 0.9035531729459763 -1.5649999976158142 -2.01
      vertex 0 -2.565 -2.01
    endloop
  endfacet
  facet normal 0 0 -1
    outer loop
      vertex 0 -2.565 -2.01
      vertex 0.9035531729459763 -1.5649999976158142 -2.01
      vertex 0.2514139649453229 -2.552648823914185 -2.01
    endloop
  endfacet
  facet normal 0 0 -1
    outer loop
      vertex 0.2514139649453229 -2.552648823914185 -2.01
      vertex 0.9035531729459763 -1.5649999976158142 -2.01
      vertex 0.5004066759713689 -2.515714244234286 -2.01
    endloop
  endfacet
  facet normal 0 0 -1
    outer loop
      vertex 0.5004066759713689 -2.515714244234286 -2.01
      vertex 0.9035531729459763 -1.5649999976158142 -2.01
      vertex 0.7445801971576959 -2.4545519611531157 -2.01
    endloop
  endfacet
  facet normal 0 0 -1
    outer loop
      vertex 0.7445801971576959 -2.4545519611531157 -2.01
      vertex 0.9035531729459763 -1.5649999976158142 -2.01
      vertex 0.9815830040164553 -2.3697510008914504 -2.01
    endloop
  endfacet
  facet normal 0 0 -1
    outer loop
      vertex 0.9815830040164553 -2.3697510008914504 -2.01
      vertex 0.9035531729459763 -1.5649999976158142 -2.01
      vertex 1.8071063458919525 0 -2.01
    endloop
  endfacet
  facet normal 0.04906767432741824 -0.9987954562051724 0
    outer loop
      vertex 0 -2.565 -2.01
      vertex 0.2514139649453229 -2.552648823914185 -2.01
      vertex 0.2514139649453229 -2.552648823914185 2.01
    endloop
  endfacet
  facet normal 0.14673047445536125 -0.989176509964781 0
    outer loop
      vertex 0.2514139649453229 -2.552648823914185 -2.01
      vertex 0.5004066759713689 -2.515714244234286 -2.01
      vertex 0.5004066759713689 -2.515714244234286 2.01
    endloop
  endfacet
  facet normal 0.2429801799032642 -0.9700312531945439 0
    outer loop
      vertex 0.5004066759713689 -2.515714244234286 -2.01
      vertex 0.7445801971576959 -2.4545519611531157 -2.01
      vertex 0.7445801971576959 -2.4545519611531157 2.01
    endloop
  endfacet
  facet normal 0.33688985339222016 -0.9415440651830208 0
    outer loop
      vertex 0.7445801971576959 -2.4545519611531157 -2.01
      vertex 0.9815830040164553 -2.3697510008914504 -2.01
      vertex 0.9815830040164553 -2.3697510008914504 2.01
    endloop
  endfacet
  facet normal 0.42755509343028164 -0.9039892931234436 0
    outer loop
      vertex 0.9815830040164553 -2.3697510008914504 -2.01
      vertex 1.209132629958684 -2.2621280430535307 -2.01
      vertex 1.209132629958684 -2.2621280430535307 2.01
    endloop
  endfacet
  facet normal 0 0 -1
    outer loop
      vertex 0.9815830040164553 -2.3697510008914504 -2.01
      vertex 1.8071063458919525 0 -2.01
      vertex 1.209132629958684 -2.2621280430535307 -2.01
    endloop
  endfacet
  facet normal 0 0 -1
    outer loop
      vertex 1.209132629958684 -2.2621280430535307 -2.01
      vertex 1.8071063458919525 0 -2.01
      vertex 1.4250376476952795 -2.1327195555560285 -2.01
    endloop
  endfacet
  facet normal 0 0 -1
    outer loop
      vertex 1.4250376476952795 -2.1327195555560285 -2.01
      vertex 1.8071063458919525 0 -2.01
      vertex 1.6272187738797506 -1.9827718128754204 -2.01
    endloop
  endfacet
  facet normal 0.5141027441932222 -0.857728610000272 0
    outer loop
      vertex 1.209132629958684 -2.2621280430535307 -2.01
      vertex 1.4250376476952795 -2.1327195555560285 -2.01
      vertex 1.4250376476952795 -2.1327195555560285 2.01
    endloop
  endfacet
  facet normal 0.5956993044924331 -0.8032075314806449 0
    outer loop
      vertex 1.4250376476952795 -2.1327195555560285 -2.01
      vertex 1.6272187738797506 -1.9827718128754204 -2.01
      vertex 1.6272187738797506 -1.9827718128754204 2.01
    endloop
  endfacet
  facet normal 0.6715589548470176 -0.7409511253549598 0
    outer loop
      vertex 1.6272187738797506 -1.9827718128754204 -2.01
      vertex 1.8137288937434946 -1.8137288937434946 -2.01
      vertex 1.8137288937434946 -1.8137288937434946 2.01
    endloop
  endfacet
  facet normal 0.7409511253549598 -0.6715589548470176 0
    outer loop
      vertex 1.8137288937434946 -1.8137288937434946 -2.01
      vertex 1.9827718128754204 -1.6272187738797506 -2.01
      vertex 1.8137288937434946 -1.8137288937434946 2.01
    endloop
  endfacet
  facet normal 0.8032075314806449 -0.5956993044924331 0
    outer loop
      vertex 1.9827718128754204 -1.6272187738797506 -2.01
      vertex 2.1327195555560285 -1.4250376476952795 -2.01
      vertex 1.9827718128754204 -1.6272187738797506 2.01
    endloop
  endfacet
  facet normal 0.857728610000272 -0.5141027441932222 0
    outer loop
      vertex 2.1327195555560285 -1.4250376476952795 -2.01
      vertex 2.2621280430535307 -1.209132629958684 -2.01
      vertex 2.1327195555560285 -1.4250376476952795 2.01
    endloop
  endfacet
  facet normal 0 0 -1
    outer loop
      vertex 1.6272187738797506 -1.9827718128754204 -2.01
      vertex 1.8071063458919525 0 -2.01
      vertex 1.8137288937434946 -1.8137288937434946 -2.01
    endloop
  endfacet
  facet normal 0 0 -1
    outer loop
      vertex 1.8137288937434946 -1.8137288937434946 -2.01
      vertex 1.9827718128754204 1.6272187738797506 -2.01
      vertex 1.9827718128754204 -1.6272187738797506 -2.01
    endloop
  endfacet
  facet normal 0 0 -1
    outer loop
      vertex 1.9827718128754204 -1.6272187738797506 -2.01
      vertex 2.1327195555560285 1.4250376476952795 -2.01
      vertex 2.1327195555560285 -1.4250376476952795 -2.01
    endloop
  endfacet
  facet normal 0 0 -1
    outer loop
      vertex 2.1327195555560285 -1.4250376476952795 -2.01
      vertex 2.2621280430535307 1.209132629958684 -2.01
      vertex 2.2621280430535307 -1.209132629958684 -2.01
    endloop
  endfacet
  facet normal 0 0 -1
    outer loop
      vertex 2.2621280430535307 -1.209132629958684 -2.01
      vertex 2.3697510008914504 0.9815830040164553 -2.01
      vertex 2.3697510008914504 -0.9815830040164553 -2.01
    endloop
  endfacet
  facet normal 0 0 -1
    outer loop
      vertex 2.3697510008914504 -0.9815830040164553 -2.01
      vertex 2.4545519611531157 0.7445801971576959 -2.01
      vertex 2.4545519611531157 -0.7445801971576959 -2.01
    endloop
  endfacet
  facet normal 0 0 -1
    outer loop
      vertex 2.4545519611531157 -0.7445801971576959 -2.01
      vertex 2.515714244234286 0.5004066759713689 -2.01
      vertex 2.515714244234286 -0.5004066759713689 -2.01
    endloop
  endfacet
  facet normal 0 0 -1
    outer loop
      vertex 2.515714244234286 -0.5004066759713689 -2.01
      vertex 2.552648823914185 0.2514139649453229 -2.01
      vertex 2.552648823914185 -0.2514139649453229 -2.01
    endloop
  endfacet
  facet normal 0.9039892931234436 -0.42755509343028164 0
    outer loop
      vertex 2.2621280430535307 -1.209132629958684 -2.01
      vertex 2.3697510008914504 -0.9815830040164553 -2.01
      vertex 2.2621280430535307 -1.209132629958684 2.01
    endloop
  endfacet
  facet normal 0.9415440651830208 -0.33688985339222016 0
    outer loop
      vertex 2.3697510008914504 -0.9815830040164553 -2.01
      vertex 2.4545519611531157 -0.7445801971576959 -2.01
      vertex 2.3697510008914504 -0.9815830040164553 2.01
    endloop
  endfacet
  facet normal 0.9700312531945439 -0.2429801799032642 0
    outer loop
      vertex 2.4545519611531157 -0.7445801971576959 -2.01
      vertex 2.515714244234286 -0.5004066759713689 -2.01
      vertex 2.4545519611531157 -0.7445801971576959 2.01
    endloop
  endfacet
  facet normal 0.989176509964781 -0.14673047445536125 0
    outer loop
      vertex 2.515714244234286 -0.5004066759713689 -2.01
      vertex 2.552648823914185 -0.2514139649453229 -2.01
      vertex 2.515714244234286 -0.5004066759713689 2.01
    endloop
  endfacet
  facet normal 0.9987954562051724 -0.04906767432741824 0
    outer loop
      vertex 2.552648823914185 -0.2514139649453229 -2.01
      vertex 2.565 0 -2.01
      vertex 2.552648823914185 -0.2514139649453229 2.01
    endloop
  endfacet
  facet normal 0.04906767432741824 -0.9987954562051724 0
    outer loop
      vertex 0 -2.565 -2.01
      vertex 0.2514139649453229 -2.552648823914185 2.01
      vertex 0 -2.565 2.01
    endloop
  endfacet
  facet normal 0.14673047445536125 -0.989176509964781 0
    outer loop
      vertex 0.2514139649453229 -2.552648823914185 -2.01
      vertex 0.5004066759713689 -2.515714244234286 2.01
      vertex 0.2514139649453229 -2.552648823914185 2.01
    endloop
  endfacet
  facet normal 0.2429801799032642 -0.9700312531945439 0
    outer loop
      vertex 0.5004066759713689 -2.515714244234286 -2.01
      vertex 0.7445801971576959 -2.4545519611531157 2.01
      vertex 0.5004066759713689 -2.515714244234286 2.01
    endloop
  endfacet
  facet normal 0.33688985339222016 -0.9415440651830208 0
    outer loop
      vertex 0.7445801971576959 -2.4545519611531157 -2.01
      vertex 0.9815830040164553 -2.3697510008914504 2.01
      vertex 0.7445801971576959 -2.4545519611531157 2.01
    endloop
  endfacet
  facet normal 0.42755509343028164 -0.9039892931234436 0
    outer loop
      vertex 0.9815830040164553 -2.3697510008914504 -2.01
      vertex 1.209132629958684 -2.2621280430535307 2.01
      vertex 0.9815830040164553 -2.3697510008914504 2.01
    endloop
  endfacet
  facet normal 0.5141027441932222 -0.857728610000272 0
    outer loop
      vertex 1.209132629958684 -2.2621280430535307 -2.01
      vertex 1.4250376476952795 -2.1327195555560285 2.01
      vertex 1.209132629958684 -2.2621280430535307 2.01
    endloop
  endfacet
  facet normal 0 0 1
    outer loop
      vertex 0.5004066759713689 -2.515714244234286 2.01
      vertex 0.7445801971576959 -2.4545519611531157 2.01
      vertex -0.9035531729459763 -1.5649999976158142 2.01
    endloop
  endfacet
  facet normal 0 0 1
    outer loop
      vertex 0.7445801971576959 -2.4545519611531157 2.01
      vertex 0.9815830040164553 -2.3697510008914504 2.01
      vertex -0.9035531729459763 -1.5649999976158142 2.01
    endloop
  endfacet
  facet normal 0 0 1
    outer loop
      vertex 0.9815830040164553 -2.3697510008914504 2.01
      vertex 0.9035531729459763 -1.5649999976158142 2.01
      vertex -0.9035531729459763 -1.5649999976158142 2.01
    endloop
  endfacet
  facet normal 0 0 1
    outer loop
      vertex 0.9815830040164553 -2.3697510008914504 2.01
      vertex 1.209132629958684 -2.2621280430535307 2.01
      vertex 0.9035531729459763 -1.5649999976158142 2.01
    endloop
  endfacet
  facet normal 0 0 1
    outer loop
      vertex 1.209132629958684 -2.2621280430535307 2.01
      vertex 1.4250376476952795 -2.1327195555560285 2.01
      vertex 0.9035531729459763 -1.5649999976158142 2.01
    endloop
  endfacet
  facet normal 0.5956993044924331 -0.8032075314806449 0
    outer loop
      vertex 1.4250376476952795 -2.1327195555560285 -2.01
      vertex 1.6272187738797506 -1.9827718128754204 2.01
      vertex 1.4250376476952795 -2.1327195555560285 2.01
    endloop
  endfacet
  facet normal 0.6715589548470176 -0.7409511253549598 0
    outer loop
      vertex 1.6272187738797506 -1.9827718128754204 -2.01
      vertex 1.8137288937434946 -1.8137288937434946 2.01
      vertex 1.6272187738797506 -1.9827718128754204 2.01
    endloop
  endfacet
  facet normal 0.7409511253549598 -0.6715589548470176 0
    outer loop
      vertex 1.9827718128754204 -1.6272187738797506 -2.01
      vertex 1.9827718128754204 -1.6272187738797506 2.01
      vertex 1.8137288937434946 -1.8137288937434946 2.01
    endloop
  endfacet
  facet normal 0.8032075314806449 -0.5956993044924331 0
    outer loop
      vertex 2.1327195555560285 -1.4250376476952795 -2.01
      vertex 2.1327195555560285 -1.4250376476952795 2.01
      vertex 1.9827718128754204 -1.6272187738797506 2.01
    endloop
  endfacet
  facet normal 0 0 1
    outer loop
      vertex 1.4250376476952795 -2.1327195555560285 2.01
      vertex 1.6272187738797506 -1.9827718128754204 2.01
      vertex 0.9035531729459763 -1.5649999976158142 2.01
    endloop
  endfacet
  facet normal 0 0 1
    outer loop
      vertex 1.6272187738797506 -1.9827718128754204 2.01
      vertex 1.8137288937434946 -1.8137288937434946 2.01
      vertex 0.9035531729459763 -1.5649999976158142 2.01
    endloop
  endfacet
  facet normal 0.857728610000272 -0.5141027441932222 0
    outer loop
      vertex 2.2621280430535307 -1.209132629958684 -2.01
      vertex 2.2621280430535307 -1.209132629958684 2.01
      vertex 2.1327195555560285 -1.4250376476952795 2.01
    endloop
  endfacet
  facet normal 0.9039892931234436 -0.42755509343028164 0
    outer loop
      vertex 2.3697510008914504 -0.9815830040164553 -2.01
      vertex 2.3697510008914504 -0.9815830040164553 2.01
      vertex 2.2621280430535307 -1.209132629958684 2.01
    endloop
  endfacet
  facet normal 0.9415440651830208 -0.33688985339222016 0
    outer loop
      vertex 2.4545519611531157 -0.7445801971576959 -2.01
      vertex 2.4545519611531157 -0.7445801971576959 2.01
      vertex 2.3697510008914504 -0.9815830040164553 2.01
    endloop
  endfacet
  facet normal 0.9700312531945439 -0.2429801799032642 0
    outer loop
      vertex 2.515714244234286 -0.5004066759713689 -2.01
      vertex 2.515714244234286 -0.5004066759713689 2.01
      vertex 2.4545519611531157 -0.7445801971576959 2.01
    endloop
  endfacet
  facet normal 0.989176509964781 -0.14673047445536125 0
    outer loop
      vertex 2.552648823914185 -0.2514139649453229 -2.01
      vertex 2.552648823914185 -0.2514139649453229 2.01
      vertex 2.515714244234286 -0.5004066759713689 2.01
    endloop
  endfacet
  facet normal 0.9987954562051724 -0.04906767432741824 0
    outer loop
      vertex 2.552648823914185 -0.2514139649453229 2.01
      vertex 2.565 0 -2.01
      vertex 2.565 0 2.01
    endloop
  endfacet
  facet normal 0 0 1
    outer loop
      vertex 1.8137288937434946 -1.8137288937434946 2.01
      vertex 1.8071063458919525 0 2.01
      vertex 0.9035531729459763 -1.5649999976158142 2.01
    endloop
  endfacet
  facet normal 0 0 1
    outer loop
      vertex 1.8137288937434946 -1.8137288937434946 2.01
      vertex 1.9827718128754204 -1.6272187738797506 2.01
      vertex 1.8137288937434946 1.8137288937434946 2.01
    endloop
  endfacet
  facet normal 0 0 1
    outer loop
      vertex 1.9827718128754204 -1.6272187738797506 2.01
      vertex 2.1327195555560285 -1.4250376476952795 2.01
      vertex 1.9827718128754204 1.6272187738797506 2.01
    endloop
  endfacet
  facet normal 0 0 1
    outer loop
      vertex 2.1327195555560285 -1.4250376476952795 2.01
      vertex 2.2621280430535307 -1.209132629958684 2.01
      vertex 2.1327195555560285 1.4250376476952795 2.01
    endloop
  endfacet
  facet normal 0 0 1
    outer loop
      vertex 2.2621280430535307 -1.209132629958684 2.01
      vertex 2.3697510008914504 -0.9815830040164553 2.01
      vertex 2.2621280430535307 1.209132629958684 2.01
    endloop
  endfacet
  facet normal 0 0 1
    outer loop
      vertex 2.3697510008914504 -0.9815830040164553 2.01
      vertex 2.4545519611531157 -0.7445801971576959 2.01
      vertex 2.3697510008914504 0.9815830040164553 2.01
    endloop
  endfacet
  facet normal 0 0 1
    outer loop
      vertex 2.4545519611531157 -0.7445801971576959 2.01
      vertex 2.515714244234286 -0.5004066759713689 2.01
      vertex 2.4545519611531157 0.7445801971576959 2.01
    endloop
  endfacet
  facet normal 0 0 1
    outer loop
      vertex 2.515714244234286 -0.5004066759713689 2.01
      vertex 2.552648823914185 -0.2514139649453229 2.01
      vertex 2.515714244234286 0.5004066759713689 2.01
    endloop
  endfacet
  facet normal 0 0 -1
    outer loop
      vertex 0.9815830040164553 2.3697510008914504 -2.01
      vertex 0.9035531729459763 1.5649999976158142 -2.01
      vertex -0.9035531729459763 1.5649999976158142 -2.01
    endloop
  endfacet
  facet normal 0 0 -1
    outer loop
      vertex 0.5004066759713689 2.515714244234286 -2.01
      vertex 0.7445801971576959 2.4545519611531157 -2.01
      vertex -0.9035531729459763 1.5649999976158142 -2.01
    endloop
  endfacet
  facet normal 0 0 -1
    outer loop
      vertex 0.7445801971576959 2.4545519611531157 -2.01
      vertex 0.9815830040164553 2.3697510008914504 -2.01
      vertex -0.9035531729459763 1.5649999976158142 -2.01
    endloop
  endfacet
  facet normal 0 0 -1
    outer loop
      vertex 0.9815830040164553 2.3697510008914504 -2.01
      vertex 1.209132629958684 2.2621280430535307 -2.01
      vertex 0.9035531729459763 1.5649999976158142 -2.01
    endloop
  endfacet
  facet normal 0 0 -1
    outer loop
      vertex 1.209132629958684 2.2621280430535307 -2.01
      vertex 1.4250376476952795 2.1327195555560285 -2.01
      vertex 0.9035531729459763 1.5649999976158142 -2.01
    endloop
  endfacet
  facet normal 0.04906767432741824 0.9987954562051724 0
    outer loop
      vertex 0 2.565 -2.01
      vertex 0 2.565 2.01
      vertex 0.2514139649453229 2.552648823914185 -2.01
    endloop
  endfacet
  facet normal 0.14673047445536125 0.989176509964781 0
    outer loop
      vertex 0.2514139649453229 2.552648823914185 -2.01
      vertex 0.2514139649453229 2.552648823914185 2.01
      vertex 0.5004066759713689 2.515714244234286 -2.01
    endloop
  endfacet
  facet normal 0.2429801799032642 0.9700312531945439 0
    outer loop
      vertex 0.5004066759713689 2.515714244234286 -2.01
      vertex 0.5004066759713689 2.515714244234286 2.01
      vertex 0.7445801971576959 2.4545519611531157 -2.01
    endloop
  endfacet
  facet normal 0.33688985339222016 0.9415440651830208 0
    outer loop
      vertex 0.7445801971576959 2.4545519611531157 -2.01
      vertex 0.7445801971576959 2.4545519611531157 2.01
      vertex 0.9815830040164553 2.3697510008914504 -2.01
    endloop
  endfacet
  facet normal 0.5141027441932222 0.857728610000272 0
    outer loop
      vertex 1.209132629958684 2.2621280430535307 -2.01
      vertex 1.209132629958684 2.2621280430535307 2.01
      vertex 1.4250376476952795 2.1327195555560285 -2.01
    endloop
  endfacet
  facet normal 0.42755509343028164 0.9039892931234436 0
    outer loop
      vertex 0.9815830040164553 2.3697510008914504 -2.01
      vertex 0.9815830040164553 2.3697510008914504 2.01
      vertex 1.209132629958684 2.2621280430535307 -2.01
    endloop
  endfacet
  facet normal 0 0 -1
    outer loop
      vertex 1.8137288937434946 -1.8137288937434946 -2.01
      vertex 1.8071063458919525 0 -2.01
      vertex 1.8137288937434946 1.8137288937434946 -2.01
    endloop
  endfacet
  facet normal 0 0 -1
    outer loop
      vertex 1.8137288937434946 -1.8137288937434946 -2.01
      vertex 1.8137288937434946 1.8137288937434946 -2.01
      vertex 1.9827718128754204 1.6272187738797506 -2.01
    endloop
  endfacet
  facet normal 0 0 -1
    outer loop
      vertex 1.8137288937434946 1.8137288937434946 -2.01
      vertex 1.8071063458919525 0 -2.01
      vertex 0.9035531729459763 1.5649999976158142 -2.01
    endloop
  endfacet
  facet normal 0 0 -1
    outer loop
      vertex 1.9827718128754204 -1.6272187738797506 -2.01
      vertex 1.9827718128754204 1.6272187738797506 -2.01
      vertex 2.1327195555560285 1.4250376476952795 -2.01
    endloop
  endfacet
  facet normal 0 0 -1
    outer loop
      vertex 2.1327195555560285 -1.4250376476952795 -2.01
      vertex 2.1327195555560285 1.4250376476952795 -2.01
      vertex 2.2621280430535307 1.209132629958684 -2.01
    endloop
  endfacet
  facet normal 0 0 -1
    outer loop
      vertex 2.3697510008914504 -0.9815830040164553 -2.01
      vertex 2.3697510008914504 0.9815830040164553 -2.01
      vertex 2.4545519611531157 0.7445801971576959 -2.01
    endloop
  endfacet
  facet normal 0 0 -1
    outer loop
      vertex 2.552648823914185 -0.2514139649453229 -2.01
      vertex 2.552648823914185 0.2514139649453229 -2.01
      vertex 2.565 0 -2.01
    endloop
  endfacet
  facet normal 0 0 -1
    outer loop
      vertex 2.515714244234286 -0.5004066759713689 -2.01
      vertex 2.515714244234286 0.5004066759713689 -2.01
      vertex 2.552648823914185 0.2514139649453229 -2.01
    endloop
  endfacet
  facet normal 0 0 -1
    outer loop
      vertex 2.4545519611531157 -0.7445801971576959 -2.01
      vertex 2.4545519611531157 0.7445801971576959 -2.01
      vertex 2.515714244234286 0.5004066759713689 -2.01
    endloop
  endfacet
  facet normal 0 0 -1
    outer loop
      vertex 2.2621280430535307 -1.209132629958684 -2.01
      vertex 2.2621280430535307 1.209132629958684 -2.01
      vertex 2.3697510008914504 0.9815830040164553 -2.01
    endloop
  endfacet
  facet normal 0.9987954562051724 0.04906767432741824 0
    outer loop
      vertex 2.565 0 -2.01
      vertex 2.552648823914185 0.2514139649453229 -2.01
      vertex 2.565 0 2.01
    endloop
  endfacet
  facet normal 0.989176509964781 0.14673047445536125 0
    outer loop
      vertex 2.552648823914185 0.2514139649453229 -2.01
      vertex 2.515714244234286 0.5004066759713689 -2.01
      vertex 2.552648823914185 0.2514139649453229 2.01
    endloop
  endfacet
  facet normal 0.9700312531945439 0.2429801799032642 0
    outer loop
      vertex 2.515714244234286 0.5004066759713689 -2.01
      vertex 2.4545519611531157 0.7445801971576959 -2.01
      vertex 2.515714244234286 0.5004066759713689 2.01
    endloop
  endfacet
  facet normal 0.857728610000272 0.5141027441932222 0
    outer loop
      vertex 2.2621280430535307 1.209132629958684 -2.01
      vertex 2.1327195555560285 1.4250376476952795 -2.01
      vertex 2.2621280430535307 1.209132629958684 2.01
    endloop
  endfacet
  facet normal 0.9415440651830208 0.33688985339222016 0
    outer loop
      vertex 2.4545519611531157 0.7445801971576959 -2.01
      vertex 2.3697510008914504 0.9815830040164553 -2.01
      vertex 2.4545519611531157 0.7445801971576959 2.01
    endloop
  endfacet
  facet normal 0.9039892931234436 0.42755509343028164 0
    outer loop
      vertex 2.3697510008914504 0.9815830040164553 -2.01
      vertex 2.2621280430535307 1.209132629958684 -2.01
      vertex 2.3697510008914504 0.9815830040164553 2.01
    endloop
  endfacet
  facet normal 0 0 -1
    outer loop
      vertex 1.4250376476952795 2.1327195555560285 -2.01
      vertex 1.6272187738797506 1.9827718128754204 -2.01
      vertex 0.9035531729459763 1.5649999976158142 -2.01
    endloop
  endfacet
  facet normal 0 0 -1
    outer loop
      vertex 1.8137288937434946 1.8137288937434946 -2.01
      vertex 0.9035531729459763 1.5649999976158142 -2.01
      vertex 1.6272187738797506 1.9827718128754204 -2.01
    endloop
  endfacet
  facet normal 0.5956993044924331 0.8032075314806449 0
    outer loop
      vertex 1.4250376476952795 2.1327195555560285 -2.01
      vertex 1.4250376476952795 2.1327195555560285 2.01
      vertex 1.6272187738797506 1.9827718128754204 -2.01
    endloop
  endfacet
  facet normal 0.6715589548470176 0.7409511253549598 0
    outer loop
      vertex 1.8137288937434946 1.8137288937434946 -2.01
      vertex 1.6272187738797506 1.9827718128754204 -2.01
      vertex 1.6272187738797506 1.9827718128754204 2.01
    endloop
  endfacet
  facet normal 0.8032075314806449 0.5956993044924331 0
    outer loop
      vertex 2.1327195555560285 1.4250376476952795 -2.01
      vertex 1.9827718128754204 1.6272187738797506 -2.01
      vertex 2.1327195555560285 1.4250376476952795 2.01
    endloop
  endfacet
  facet normal 0.7409511253549598 0.6715589548470176 0
    outer loop
      vertex 1.8137288937434946 1.8137288937434946 -2.01
      vertex 1.9827718128754204 1.6272187738797506 2.01
      vertex 1.9827718128754204 1.6272187738797506 -2.01
    endloop
  endfacet
  facet normal 0.04906767432741824 0.9987954562051724 0
    outer loop
      vertex 0.2514139649453229 2.552648823914185 -2.01
      vertex 0 2.565 2.01
      vertex 0.2514139649453229 2.552648823914185 2.01
    endloop
  endfacet
  facet normal 0.14673047445536125 0.989176509964781 0
    outer loop
      vertex 0.5004066759713689 2.515714244234286 -2.01
      vertex 0.2514139649453229 2.552648823914185 2.01
      vertex 0.5004066759713689 2.515714244234286 2.01
    endloop
  endfacet
  facet normal 0.2429801799032642 0.9700312531945439 0
    outer loop
      vertex 0.7445801971576959 2.4545519611531157 -2.01
      vertex 0.5004066759713689 2.515714244234286 2.01
      vertex 0.7445801971576959 2.4545519611531157 2.01
    endloop
  endfacet
  facet normal 0.33688985339222016 0.9415440651830208 0
    outer loop
      vertex 0.9815830040164553 2.3697510008914504 -2.01
      vertex 0.7445801971576959 2.4545519611531157 2.01
      vertex 0.9815830040164553 2.3697510008914504 2.01
    endloop
  endfacet
  facet normal 0.42755509343028164 0.9039892931234436 0
    outer loop
      vertex 1.209132629958684 2.2621280430535307 -2.01
      vertex 0.9815830040164553 2.3697510008914504 2.01
      vertex 1.209132629958684 2.2621280430535307 2.01
    endloop
  endfacet
  facet normal 0 0 1
    outer loop
      vertex -0.5004066759713689 2.515714244234286 2.01
      vertex 0.9035531729459763 1.5649999976158142 2.01
      vertex -0.2514139649453229 2.552648823914185 2.01
    endloop
  endfacet
  facet normal 0 0 1
    outer loop
      vertex -0.2514139649453229 2.552648823914185 2.01
      vertex 0.9035531729459763 1.5649999976158142 2.01
      vertex 0 2.565 2.01
    endloop
  endfacet
  facet normal 0 0 1
    outer loop
      vertex 0 2.565 2.01
      vertex 0.9035531729459763 1.5649999976158142 2.01
      vertex 0.2514139649453229 2.552648823914185 2.01
    endloop
  endfacet
  facet normal 0 0 1
    outer loop
      vertex 0.2514139649453229 2.552648823914185 2.01
      vertex 0.9035531729459763 1.5649999976158142 2.01
      vertex 0.5004066759713689 2.515714244234286 2.01
    endloop
  endfacet
  facet normal 0 0 1
    outer loop
      vertex 0.9815830040164553 2.3697510008914504 2.01
      vertex 0.9035531729459763 1.5649999976158142 2.01
      vertex 1.8071063458919525 0 2.01
    endloop
  endfacet
  facet normal 0 0 1
    outer loop
      vertex 0.5004066759713689 2.515714244234286 2.01
      vertex 0.9035531729459763 1.5649999976158142 2.01
      vertex 0.7445801971576959 2.4545519611531157 2.01
    endloop
  endfacet
  facet normal 0 0 1
    outer loop
      vertex 0.7445801971576959 2.4545519611531157 2.01
      vertex 0.9035531729459763 1.5649999976158142 2.01
      vertex 0.9815830040164553 2.3697510008914504 2.01
    endloop
  endfacet
  facet normal 0.9987954562051724 0.04906767432741824 0
    outer loop
      vertex 2.552648823914185 0.2514139649453229 -2.01
      vertex 2.552648823914185 0.2514139649453229 2.01
      vertex 2.565 0 2.01
    endloop
  endfacet
  facet normal 0.989176509964781 0.14673047445536125 0
    outer loop
      vertex 2.515714244234286 0.5004066759713689 -2.01
      vertex 2.515714244234286 0.5004066759713689 2.01
      vertex 2.552648823914185 0.2514139649453229 2.01
    endloop
  endfacet
  facet normal 0.9415440651830208 0.33688985339222016 0
    outer loop
      vertex 2.3697510008914504 0.9815830040164553 -2.01
      vertex 2.3697510008914504 0.9815830040164553 2.01
      vertex 2.4545519611531157 0.7445801971576959 2.01
    endloop
  endfacet
  facet normal 0.9700312531945439 0.2429801799032642 0
    outer loop
      vertex 2.4545519611531157 0.7445801971576959 -2.01
      vertex 2.4545519611531157 0.7445801971576959 2.01
      vertex 2.515714244234286 0.5004066759713689 2.01
    endloop
  endfacet
  facet normal 0.9039892931234436 0.42755509343028164 0
    outer loop
      vertex 2.2621280430535307 1.209132629958684 -2.01
      vertex 2.2621280430535307 1.209132629958684 2.01
      vertex 2.3697510008914504 0.9815830040164553 2.01
    endloop
  endfacet
  facet normal 0 0 1
    outer loop
      vertex 1.8137288937434946 -1.8137288937434946 2.01
      vertex 1.8137288937434946 1.8137288937434946 2.01
      vertex 1.8071063458919525 0 2.01
    endloop
  endfacet
  facet normal 0 0 1
    outer loop
      vertex 1.8137288937434946 1.8137288937434946 2.01
      vertex 1.6272187738797506 1.9827718128754204 2.01
      vertex 1.8071063458919525 0 2.01
    endloop
  endfacet
  facet normal 0 0 1
    outer loop
      vertex 1.9827718128754204 -1.6272187738797506 2.01
      vertex 1.9827718128754204 1.6272187738797506 2.01
      vertex 1.8137288937434946 1.8137288937434946 2.01
    endloop
  endfacet
  facet normal 0 0 1
    outer loop
      vertex 2.1327195555560285 -1.4250376476952795 2.01
      vertex 2.1327195555560285 1.4250376476952795 2.01
      vertex 1.9827718128754204 1.6272187738797506 2.01
    endloop
  endfacet
  facet normal 0 0 1
    outer loop
      vertex 2.2621280430535307 -1.209132629958684 2.01
      vertex 2.2621280430535307 1.209132629958684 2.01
      vertex 2.1327195555560285 1.4250376476952795 2.01
    endloop
  endfacet
  facet normal 0 0 1
    outer loop
      vertex 2.552648823914185 -0.2514139649453229 2.01
      vertex 2.565 0 2.01
      vertex 2.552648823914185 0.2514139649453229 2.01
    endloop
  endfacet
  facet normal 0 0 1
    outer loop
      vertex 2.552648823914185 -0.2514139649453229 2.01
      vertex 2.552648823914185 0.2514139649453229 2.01
      vertex 2.515714244234286 0.5004066759713689 2.01
    endloop
  endfacet
  facet normal 0 0 1
    outer loop
      vertex 2.515714244234286 -0.5004066759713689 2.01
      vertex 2.515714244234286 0.5004066759713689 2.01
      vertex 2.4545519611531157 0.7445801971576959 2.01
    endloop
  endfacet
  facet normal 0 0 1
    outer loop
      vertex 2.3697510008914504 -0.9815830040164553 2.01
      vertex 2.3697510008914504 0.9815830040164553 2.01
      vertex 2.2621280430535307 1.209132629958684 2.01
    endloop
  endfacet
  facet normal 0 0 1
    outer loop
      vertex 2.4545519611531157 -0.7445801971576959 2.01
      vertex 2.4545519611531157 0.7445801971576959 2.01
      vertex 2.3697510008914504 0.9815830040164553 2.01
    endloop
  endfacet
  facet normal 0.6715589548470176 0.7409511253549598 0
    outer loop
      vertex 1.8137288937434946 1.8137288937434946 -2.01
      vertex 1.6272187738797506 1.9827718128754204 2.01
      vertex 1.8137288937434946 1.8137288937434946 2.01
    endloop
  endfacet
  facet normal 0.7409511253549598 0.6715589548470176 0
    outer loop
      vertex 1.8137288937434946 1.8137288937434946 -2.01
      vertex 1.8137288937434946 1.8137288937434946 2.01
      vertex 1.9827718128754204 1.6272187738797506 2.01
    endloop
  endfacet
  facet normal 0.5141027441932222 0.857728610000272 0
    outer loop
      vertex 1.4250376476952795 2.1327195555560285 -2.01
      vertex 1.209132629958684 2.2621280430535307 2.01
      vertex 1.4250376476952795 2.1327195555560285 2.01
    endloop
  endfacet
  facet normal 0.5956993044924331 0.8032075314806449 0
    outer loop
      vertex 1.6272187738797506 1.9827718128754204 -2.01
      vertex 1.4250376476952795 2.1327195555560285 2.01
      vertex 1.6272187738797506 1.9827718128754204 2.01
    endloop
  endfacet
  facet normal 0.8032075314806449 0.5956993044924331 0
    outer loop
      vertex 1.9827718128754204 1.6272187738797506 -2.01
      vertex 1.9827718128754204 1.6272187738797506 2.01
      vertex 2.1327195555560285 1.4250376476952795 2.01
    endloop
  endfacet
  facet normal 0.857728610000272 0.5141027441932222 0
    outer loop
      vertex 2.1327195555560285 1.4250376476952795 -2.01
      vertex 2.1327195555560285 1.4250376476952795 2.01
      vertex 2.2621280430535307 1.209132629958684 2.01
    endloop
  endfacet
  facet normal 0 0 1
    outer loop
      vertex 0.9815830040164553 2.3697510008914504 2.01
      vertex 1.8071063458919525 0 2.01
      vertex 1.209132629958684 2.2621280430535307 2.01
    endloop
  endfacet
  facet normal 0 0 1
    outer loop
      vertex 1.209132629958684 2.2621280430535307 2.01
      vertex 1.8071063458919525 0 2.01
      vertex 1.4250376476952795 2.1327195555560285 2.01
    endloop
  endfacet
  facet normal 0 0 1
    outer loop
      vertex 1.4250376476952795 2.1327195555560285 2.01
      vertex 1.8071063458919525 0 2.01
      vertex 1.6272187738797506 1.9827718128754204 2.01
    endloop
  endfacet
  facet normal 0.8660254030558311 0.5000000012619853 0
    outer loop
      vertex -0.9035531729459763 -1.5649999976158142 -2.01
      vertex -1.8071063458919525 0 -2.01
      vertex -1.8071063458919525 0 2.01
    endloop
  endfacet
  facet normal 0 1 0
    outer loop
      vertex 0.9035531729459763 -1.5649999976158142 -2.01
      vertex -0.9035531729459763 -1.5649999976158142 -2.01
      vertex -0.9035531729459763 -1.5649999976158142 2.01
    endloop
  endfacet
  facet normal 0.8660254030558311 0.5000000012619853 0
    outer loop
      vertex -1.8071063458919525 0 2.01
      vertex -0.9035531729459763 -1.5649999976158142 2.01
      vertex -0.9035531729459763 -1.5649999976158142 -2.01
    endloop
  endfacet
  facet normal 0.8660254030558311 -0.5000000012619853 0
    outer loop
      vertex -1.8071063458919525 0 -2.01
      vertex -0.9035531729459763 1.5649999976158142 -2.01
      vertex -0.9035531729459763 1.5649999976158142 2.01
    endloop
  endfacet
  facet normal 0.8660254030558311 -0.5000000012619853 0
    outer loop
      vertex -0.9035531729459763 1.5649999976158142 2.01
      vertex -1.8071063458919525 0 2.01
      vertex -1.8071063458919525 0 -2.01
    endloop
  endfacet
  facet normal 0 -1 0
    outer loop
      vertex 0.9035531729459763 1.5649999976158142 2.01
      vertex -0.9035531729459763 1.5649999976158142 2.01
      vertex -0.9035531729459763 1.5649999976158142 -2.01
    endloop
  endfacet
  facet normal -0.8660254030558311 0.5000000012619853 0
    outer loop
      vertex 1.8071063458919525 0 -2.01
      vertex 0.9035531729459763 -1.5649999976158142 -2.01
      vertex 0.9035531729459763 -1.5649999976158142 2.01
    endloop
  endfacet
  facet normal 0 1 0
    outer loop
      vertex -0.9035531729459763 -1.5649999976158142 2.01
      vertex 0.9035531729459763 -1.5649999976158142 2.01
      vertex 0.9035531729459763 -1.5649999976158142 -2.01
    endloop
  endfacet
  facet normal -0.8660254030558311 0.5000000012619853 0
    outer loop
      vertex 0.9035531729459763 -1.5649999976158142 2.01
      vertex 1.8071063458919525 0 2.01
      vertex 1.8071063458919525 0 -2.01
    endloop
  endfacet
  facet normal 0 -1 0
    outer loop
      vertex -0.9035531729459763 1.5649999976158142 -2.01
      vertex 0.9035531729459763 1.5649999976158142 -2.01
      vertex 0.9035531729459763 1.5649999976158142 2.01
    endloop
  endfacet
  facet normal -0.8660254030558311 -0.5000000012619853 0
    outer loop
      vertex 0.9035531729459763 1.5649999976158142 -2.01
      vertex 1.8071063458919525 0 -2.01
      vertex 1.8071063458919525 0 2.01
    endloop
  endfacet
  facet normal -0.8660254030558311 -0.5000000012619853 0
    outer loop
      vertex 1.8071063458919525 0 2.01
      vertex 0.9035531729459763 1.5649999976158142 2.01
      vertex 0.9035531729459763 1.5649999976158142 -2.01
    endloop
  endfacet
endsolid OpenSCAD_Model
