solid OpenSCAD_Model
  facet normal 0 0 -1
    outer loop
      vertex -1.6367346731422054 -1.9943669696758615 -2.01
      vertex -1.8243354954612927 -1.8243354954612927 -2.01
      vertex -0.912213422358036 -1.5799999982118607 -2.01
    endloop
  endfacet
  facet normal 0 0 -1
    outer loop
      vertex -1.9943669696758615 -1.6367346731422054 -2.01
      vertex -0.912213422358036 -1.5799999982118607 -2.01
      vertex -1.8243354954612927 -1.8243354954612927 -2.01
    endloop
  endfacet
  facet normal 0 0 -1
    outer loop
      vertex -1.6367346731422054 -1.9943669696758615 -2.01
      vertex -0.912213422358036 -1.5799999982118607 -2.01
      vertex -1.4333712011905737 -2.1451915997405666 -2.01
    endloop
  endfacet
  facet normal -0.7409511253549591 -0.6715589548470184 0
    outer loop
      vertex -1.9943669696758615 -1.6367346731422054 -2.01
      vertex -1.8243354954612927 -1.8243354954612927 -2.01
      vertex -1.9943669696758615 -1.6367346731422054 2.01
    endloop
  endfacet
  facet normal -0.8032075314806454 -0.5956993044924326 0
    outer loop
      vertex -1.9943669696758615 -1.6367346731422054 -2.01
      vertex -2.1451915997405666 -1.4333712011905737 2.01
      vertex -2.1451915997405666 -1.4333712011905737 -2.01
    endloop
  endfacet
  facet normal -0.6715589548470184 -0.7409511253549591 0
    outer loop
      vertex -1.6367346731422054 -1.9943669696758615 -2.01
      vertex -1.6367346731422054 -1.9943669696758615 2.01
      vertex -1.8243354954612927 -1.8243354954612927 -2.01
    endloop
  endfacet
  facet normal -0.5956993044924326 -0.8032075314806454 0
    outer loop
      vertex -1.6367346731422054 -1.9943669696758615 -2.01
      vertex -1.4333712011905737 -2.1451915997405666 -2.01
      vertex -1.4333712011905737 -2.1451915997405666 2.01
    endloop
  endfacet
  facet normal 0 0 -1
    outer loop
      vertex -2.2753568620187563 -1.2162035810110738 -2.01
      vertex -2.3836091938791197 -0.9873232555019317 -2.01
      vertex -2.2753568620187563 1.2162035810110738 -2.01
    endloop
  endfacet
  facet normal 0 0 -1
    outer loop
      vertex -2.4689060661890987 -0.7489344673165128 -2.01
      vertex -2.5304260234403344 -0.5033330308016108 -2.01
      vertex -2.4689060661890987 0.7489344673165128 -2.01
    endloop
  endfacet
  facet normal 0 0 -1
    outer loop
      vertex -2.5304260234403344 -0.5033330308016108 -2.01
      vertex -2.5675765948142684 -0.25288422205026634 -2.01
      vertex -2.5304260234403344 0.5033330308016108 -2.01
    endloop
  endfacet
  facet normal 0 0 -1
    outer loop
      vertex -2.3836091938791197 -0.9873232555019317 -2.01
      vertex -2.4689060661890987 -0.7489344673165128 -2.01
      vertex -2.3836091938791197 0.9873232555019317 -2.01
    endloop
  endfacet
  facet normal 0 0 -1
    outer loop
      vertex -2.1451915997405666 -1.4333712011905737 -2.01
      vertex -2.2753568620187563 -1.2162035810110738 -2.01
      vertex -2.1451915997405666 1.4333712011905737 -2.01
    endloop
  endfacet
  facet normal 0 0 -1
    outer loop
      vertex -1.9943669696758615 -1.6367346731422054 -2.01
      vertex -2.1451915997405666 -1.4333712011905737 -2.01
      vertex -1.9943669696758615 1.6367346731422054 -2.01
    endloop
  endfacet
  facet normal 0 0 -1
    outer loop
      vertex -1.9943669696758615 -1.6367346731422054 -2.01
      vertex -1.8244268521666527 0 -2.01
      vertex -0.912213422358036 -1.5799999982118607 -2.01
    endloop
  endfacet
  facet normal -0.9039892931234439 -0.4275550934302809 0
    outer loop
      vertex -2.2753568620187563 -1.2162035810110738 -2.01
      vertex -2.3836091938791197 -0.9873232555019317 2.01
      vertex -2.3836091938791197 -0.9873232555019317 -2.01
    endloop
  endfacet
  facet normal -0.9415440651830209 -0.33688985339221955 0
    outer loop
      vertex -2.3836091938791197 -0.9873232555019317 -2.01
      vertex -2.4689060661890987 -0.7489344673165128 2.01
      vertex -2.4689060661890987 -0.7489344673165128 -2.01
    endloop
  endfacet
  facet normal -0.8577286100002715 -0.5141027441932229 0
    outer loop
      vertex -2.1451915997405666 -1.4333712011905737 -2.01
      vertex -2.2753568620187563 -1.2162035810110738 2.01
      vertex -2.2753568620187563 -1.2162035810110738 -2.01
    endloop
  endfacet
  facet normal -0.9700312531945439 -0.24298017990326395 0
    outer loop
      vertex -2.4689060661890987 -0.7489344673165128 -2.01
      vertex -2.5304260234403344 -0.5033330308016108 2.01
      vertex -2.5304260234403344 -0.5033330308016108 -2.01
    endloop
  endfacet
  facet normal -0.9891765099647808 -0.14673047445536394 0
    outer loop
      vertex -2.5304260234403344 -0.5033330308016108 -2.01
      vertex -2.5675765948142684 -0.25288422205026634 2.01
      vertex -2.5675765948142684 -0.25288422205026634 -2.01
    endloop
  endfacet
  facet normal -0.9987954562051725 -0.049067674327416724 0
    outer loop
      vertex -2.5675765948142684 -0.25288422205026634 -2.01
      vertex -2.58 0 2.01
      vertex -2.58 0 -2.01
    endloop
  endfacet
  facet normal 0 0 -1
    outer loop
      vertex -1.4333712011905737 -2.1451915997405666 -2.01
      vertex -0.912213422358036 -1.5799999982118607 -2.01
      vertex -1.2162035810110738 -2.2753568620187563 -2.01
    endloop
  endfacet
  facet normal 0 0 -1
    outer loop
      vertex -1.2162035810110738 -2.2753568620187563 -2.01
      vertex -0.912213422358036 -1.5799999982118607 -2.01
      vertex -0.9873232555019317 -2.3836091938791197 -2.01
    endloop
  endfacet
  facet normal 0 0 -1
    outer loop
      vertex -0.9873232555019317 -2.3836091938791197 -2.01
      vertex 0.912213422358036 -1.5799999982118607 -2.01
      vertex -0.7489344673165128 -2.4689060661890987 -2.01
    endloop
  endfacet
  facet normal 0 0 -1
    outer loop
      vertex -0.7489344673165128 -2.4689060661890987 -2.01
      vertex 0.912213422358036 -1.5799999982118607 -2.01
      vertex -0.5033330308016108 -2.5304260234403344 -2.01
    endloop
  endfacet
  facet normal 0 0 -1
    outer loop
      vertex -0.9873232555019317 -2.3836091938791197 -2.01
      vertex -0.912213422358036 -1.5799999982118607 -2.01
      vertex 0.912213422358036 -1.5799999982118607 -2.01
    endloop
  endfacet
  facet normal -0.4275550934302809 -0.9039892931234439 0
    outer loop
      vertex -1.2162035810110738 -2.2753568620187563 -2.01
      vertex -0.9873232555019317 -2.3836091938791197 -2.01
      vertex -0.9873232555019317 -2.3836091938791197 2.01
    endloop
  endfacet
  facet normal -0.5141027441932229 -0.8577286100002715 0
    outer loop
      vertex -1.4333712011905737 -2.1451915997405666 -2.01
      vertex -1.2162035810110738 -2.2753568620187563 -2.01
      vertex -1.2162035810110738 -2.2753568620187563 2.01
    endloop
  endfacet
  facet normal -0.33688985339221955 -0.9415440651830209 0
    outer loop
      vertex -0.9873232555019317 -2.3836091938791197 -2.01
      vertex -0.7489344673165128 -2.4689060661890987 -2.01
      vertex -0.7489344673165128 -2.4689060661890987 2.01
    endloop
  endfacet
  facet normal -0.24298017990326395 -0.9700312531945439 0
    outer loop
      vertex -0.7489344673165128 -2.4689060661890987 -2.01
      vertex -0.5033330308016108 -2.5304260234403344 -2.01
      vertex -0.5033330308016108 -2.5304260234403344 2.01
    endloop
  endfacet
  facet normal -0.14673047445536394 -0.9891765099647808 0
    outer loop
      vertex -0.5033330308016108 -2.5304260234403344 -2.01
      vertex -0.25288422205026634 -2.5675765948142684 -2.01
      vertex -0.25288422205026634 -2.5675765948142684 2.01
    endloop
  endfacet
  facet normal -0.049067674327416724 -0.9987954562051725 0
    outer loop
      vertex -0.25288422205026634 -2.5675765948142684 -2.01
      vertex 0 -2.58 -2.01
      vertex 0 -2.58 2.01
    endloop
  endfacet
  facet normal -0.8577286100002715 -0.5141027441932229 0
    outer loop
      vertex -2.1451915997405666 -1.4333712011905737 -2.01
      vertex -2.1451915997405666 -1.4333712011905737 2.01
      vertex -2.2753568620187563 -1.2162035810110738 2.01
    endloop
  endfacet
  facet normal -0.8032075314806454 -0.5956993044924326 0
    outer loop
      vertex -1.9943669696758615 -1.6367346731422054 -2.01
      vertex -1.9943669696758615 -1.6367346731422054 2.01
      vertex -2.1451915997405666 -1.4333712011905737 2.01
    endloop
  endfacet
  facet normal -0.5956993044924326 -0.8032075314806454 0
    outer loop
      vertex -1.6367346731422054 -1.9943669696758615 -2.01
      vertex -1.4333712011905737 -2.1451915997405666 2.01
      vertex -1.6367346731422054 -1.9943669696758615 2.01
    endloop
  endfacet
  facet normal -0.5141027441932229 -0.8577286100002715 0
    outer loop
      vertex -1.4333712011905737 -2.1451915997405666 -2.01
      vertex -1.2162035810110738 -2.2753568620187563 2.01
      vertex -1.4333712011905737 -2.1451915997405666 2.01
    endloop
  endfacet
  facet normal -0.7409511253549591 -0.6715589548470184 0
    outer loop
      vertex -1.8243354954612927 -1.8243354954612927 -2.01
      vertex -1.8243354954612927 -1.8243354954612927 2.01
      vertex -1.9943669696758615 -1.6367346731422054 2.01
    endloop
  endfacet
  facet normal -0.6715589548470184 -0.7409511253549591 0
    outer loop
      vertex -1.8243354954612927 -1.8243354954612927 -2.01
      vertex -1.6367346731422054 -1.9943669696758615 2.01
      vertex -1.8243354954612927 -1.8243354954612927 2.01
    endloop
  endfacet
  facet normal 0 0 1
    outer loop
      vertex -1.6367346731422054 -1.9943669696758615 2.01
      vertex -1.4333712011905737 -2.1451915997405666 2.01
      vertex -1.8244268521666527 0 2.01
    endloop
  endfacet
  facet normal 0 0 1
    outer loop
      vertex -1.4333712011905737 -2.1451915997405666 2.01
      vertex -1.2162035810110738 -2.2753568620187563 2.01
      vertex -1.8244268521666527 0 2.01
    endloop
  endfacet
  facet normal 0 0 1
    outer loop
      vertex -1.2162035810110738 -2.2753568620187563 2.01
      vertex -0.9873232555019317 -2.3836091938791197 2.01
      vertex -1.8244268521666527 0 2.01
    endloop
  endfacet
  facet normal -0.9039892931234439 -0.4275550934302809 0
    outer loop
      vertex -2.2753568620187563 -1.2162035810110738 -2.01
      vertex -2.2753568620187563 -1.2162035810110738 2.01
      vertex -2.3836091938791197 -0.9873232555019317 2.01
    endloop
  endfacet
  facet normal -0.9700312531945439 -0.24298017990326395 0
    outer loop
      vertex -2.4689060661890987 -0.7489344673165128 -2.01
      vertex -2.4689060661890987 -0.7489344673165128 2.01
      vertex -2.5304260234403344 -0.5033330308016108 2.01
    endloop
  endfacet
  facet normal -0.9415440651830209 -0.33688985339221955 0
    outer loop
      vertex -2.3836091938791197 -0.9873232555019317 -2.01
      vertex -2.3836091938791197 -0.9873232555019317 2.01
      vertex -2.4689060661890987 -0.7489344673165128 2.01
    endloop
  endfacet
  facet normal -0.9891765099647808 -0.14673047445536394 0
    outer loop
      vertex -2.5304260234403344 -0.5033330308016108 -2.01
      vertex -2.5304260234403344 -0.5033330308016108 2.01
      vertex -2.5675765948142684 -0.25288422205026634 2.01
    endloop
  endfacet
  facet normal -0.9987954562051725 -0.049067674327416724 0
    outer loop
      vertex -2.5675765948142684 -0.25288422205026634 -2.01
      vertex -2.5675765948142684 -0.25288422205026634 2.01
      vertex -2.58 0 2.01
    endloop
  endfacet
  facet normal 0 0 1
    outer loop
      vertex -2.3836091938791197 -0.9873232555019317 2.01
      vertex -2.4689060661890987 0.7489344673165128 2.01
      vertex -2.4689060661890987 -0.7489344673165128 2.01
    endloop
  endfacet
  facet normal 0 0 1
    outer loop
      vertex -2.2753568620187563 -1.2162035810110738 2.01
      vertex -2.3836091938791197 0.9873232555019317 2.01
      vertex -2.3836091938791197 -0.9873232555019317 2.01
    endloop
  endfacet
  facet normal 0 0 1
    outer loop
      vertex -2.4689060661890987 -0.7489344673165128 2.01
      vertex -2.5304260234403344 0.5033330308016108 2.01
      vertex -2.5304260234403344 -0.5033330308016108 2.01
    endloop
  endfacet
  facet normal 0 0 1
    outer loop
      vertex -2.5304260234403344 -0.5033330308016108 2.01
      vertex -2.5675765948142684 0.25288422205026634 2.01
      vertex -2.5675765948142684 -0.25288422205026634 2.01
    endloop
  endfacet
  facet normal 0 0 1
    outer loop
      vertex -2.1451915997405666 -1.4333712011905737 2.01
      vertex -2.2753568620187563 1.2162035810110738 2.01
      vertex -2.2753568620187563 -1.2162035810110738 2.01
    endloop
  endfacet
  facet normal 0 0 1
    outer loop
      vertex -1.9943669696758615 -1.6367346731422054 2.01
      vertex -2.1451915997405666 1.4333712011905737 2.01
      vertex -2.1451915997405666 -1.4333712011905737 2.01
    endloop
  endfacet
  facet normal 0 0 1
    outer loop
      vertex -1.9943669696758615 -1.6367346731422054 2.01
      vertex -1.8243354954612927 -1.8243354954612927 2.01
      vertex -1.9943669696758615 1.6367346731422054 2.01
    endloop
  endfacet
  facet normal 0 0 1
    outer loop
      vertex -1.6367346731422054 -1.9943669696758615 2.01
      vertex -1.8244268521666527 0 2.01
      vertex -1.8243354954612927 -1.8243354954612927 2.01
    endloop
  endfacet
  facet normal 0 0 1
    outer loop
      vertex -1.8243354954612927 -1.8243354954612927 2.01
      vertex -1.8244268521666527 0 2.01
      vertex -1.9943669696758615 1.6367346731422054 2.01
    endloop
  endfacet
  facet normal -0.4275550934302809 -0.9039892931234439 0
    outer loop
      vertex -1.2162035810110738 -2.2753568620187563 -2.01
      vertex -0.9873232555019317 -2.3836091938791197 2.01
      vertex -1.2162035810110738 -2.2753568620187563 2.01
    endloop
  endfacet
  facet normal -0.33688985339221955 -0.9415440651830209 0
    outer loop
      vertex -0.9873232555019317 -2.3836091938791197 -2.01
      vertex -0.7489344673165128 -2.4689060661890987 2.01
      vertex -0.9873232555019317 -2.3836091938791197 2.01
    endloop
  endfacet
  facet normal -0.24298017990326395 -0.9700312531945439 0
    outer loop
      vertex -0.7489344673165128 -2.4689060661890987 -2.01
      vertex -0.5033330308016108 -2.5304260234403344 2.01
      vertex -0.7489344673165128 -2.4689060661890987 2.01
    endloop
  endfacet
  facet normal -0.14673047445536394 -0.9891765099647808 0
    outer loop
      vertex -0.5033330308016108 -2.5304260234403344 -2.01
      vertex -0.25288422205026634 -2.5675765948142684 2.01
      vertex -0.5033330308016108 -2.5304260234403344 2.01
    endloop
  endfacet
  facet normal -0.049067674327416724 -0.9987954562051725 0
    outer loop
      vertex -0.25288422205026634 -2.5675765948142684 -2.01
      vertex 0 -2.58 2.01
      vertex -0.25288422205026634 -2.5675765948142684 2.01
    endloop
  endfacet
  facet normal 0 0 1
    outer loop
      vertex -0.9873232555019317 -2.3836091938791197 2.01
      vertex -0.7489344673165128 -2.4689060661890987 2.01
      vertex -0.912213422358036 -1.5799999982118607 2.01
    endloop
  endfacet
  facet normal 0 0 1
    outer loop
      vertex -0.7489344673165128 -2.4689060661890987 2.01
      vertex -0.5033330308016108 -2.5304260234403344 2.01
      vertex -0.912213422358036 -1.5799999982118607 2.01
    endloop
  endfacet
  facet normal 0 0 1
    outer loop
      vertex -0.9873232555019317 -2.3836091938791197 2.01
      vertex -0.912213422358036 -1.5799999982118607 2.01
      vertex -1.8244268521666527 0 2.01
    endloop
  endfacet
  facet normal 0 0 1
    outer loop
      vertex -0.5033330308016108 -2.5304260234403344 2.01
      vertex -0.25288422205026634 -2.5675765948142684 2.01
      vertex -0.912213422358036 -1.5799999982118607 2.01
    endloop
  endfacet
  facet normal 0 0 1
    outer loop
      vertex -0.25288422205026634 -2.5675765948142684 2.01
      vertex 0 -2.58 2.01
      vertex -0.912213422358036 -1.5799999982118607 2.01
    endloop
  endfacet
  facet normal 0 0 1
    outer loop
      vertex 0 -2.58 2.01
      vertex 0.25288422205026634 -2.5675765948142684 2.01
      vertex -0.912213422358036 -1.5799999982118607 2.01
    endloop
  endfacet
  facet normal 0 0 1
    outer loop
      vertex 0.25288422205026634 -2.5675765948142684 2.01
      vertex 0.5033330308016108 -2.5304260234403344 2.01
      vertex -0.912213422358036 -1.5799999982118607 2.01
    endloop
  endfacet
  facet normal 0 0 -1
    outer loop
      vertex -2.5675765948142684 -0.25288422205026634 -2.01
      vertex -2.58 0 -2.01
      vertex -2.5675765948142684 0.25288422205026634 -2.01
    endloop
  endfacet
  facet normal 0 0 -1
    outer loop
      vertex -2.5675765948142684 -0.25288422205026634 -2.01
      vertex -2.5675765948142684 0.25288422205026634 -2.01
      vertex -2.5304260234403344 0.5033330308016108 -2.01
    endloop
  endfacet
  facet normal 0 0 -1
    outer loop
      vertex -2.5304260234403344 -0.5033330308016108 -2.01
      vertex -2.5304260234403344 0.5033330308016108 -2.01
      vertex -2.4689060661890987 0.7489344673165128 -2.01
    endloop
  endfacet
  facet normal 0 0 -1
    outer loop
      vertex -2.4689060661890987 -0.7489344673165128 -2.01
      vertex -2.4689060661890987 0.7489344673165128 -2.01
      vertex -2.3836091938791197 0.9873232555019317 -2.01
    endloop
  endfacet
  facet normal 0 0 -1
    outer loop
      vertex -2.3836091938791197 -0.9873232555019317 -2.01
      vertex -2.3836091938791197 0.9873232555019317 -2.01
      vertex -2.2753568620187563 1.2162035810110738 -2.01
    endloop
  endfacet
  facet normal 0 0 -1
    outer loop
      vertex -2.2753568620187563 -1.2162035810110738 -2.01
      vertex -2.2753568620187563 1.2162035810110738 -2.01
      vertex -2.1451915997405666 1.4333712011905737 -2.01
    endloop
  endfacet
  facet normal 0 0 -1
    outer loop
      vertex -2.1451915997405666 -1.4333712011905737 -2.01
      vertex -2.1451915997405666 1.4333712011905737 -2.01
      vertex -1.9943669696758615 1.6367346731422054 -2.01
    endloop
  endfacet
  facet normal 0 0 -1
    outer loop
      vertex -1.9943669696758615 -1.6367346731422054 -2.01
      vertex -1.9943669696758615 1.6367346731422054 -2.01
      vertex -1.8243354954612927 1.8243354954612927 -2.01
    endloop
  endfacet
  facet normal 0 0 -1
    outer loop
      vertex -1.9943669696758615 -1.6367346731422054 -2.01
      vertex -1.8243354954612927 1.8243354954612927 -2.01
      vertex -1.8244268521666527 0 -2.01
    endloop
  endfacet
  facet normal 0 0 -1
    outer loop
      vertex -1.8243354954612927 1.8243354954612927 -2.01
      vertex -1.6367346731422054 1.9943669696758615 -2.01
      vertex -1.8244268521666527 0 -2.01
    endloop
  endfacet
  facet normal -0.9987954562051725 0.049067674327416724 0
    outer loop
      vertex -2.58 0 -2.01
      vertex -2.5675765948142684 0.25288422205026634 2.01
      vertex -2.5675765948142684 0.25288422205026634 -2.01
    endloop
  endfacet
  facet normal -0.9891765099647808 0.14673047445536394 0
    outer loop
      vertex -2.5675765948142684 0.25288422205026634 -2.01
      vertex -2.5304260234403344 0.5033330308016108 2.01
      vertex -2.5304260234403344 0.5033330308016108 -2.01
    endloop
  endfacet
  facet normal -0.9700312531945439 0.24298017990326395 0
    outer loop
      vertex -2.5304260234403344 0.5033330308016108 -2.01
      vertex -2.4689060661890987 0.7489344673165128 2.01
      vertex -2.4689060661890987 0.7489344673165128 -2.01
    endloop
  endfacet
  facet normal -0.9415440651830209 0.33688985339221955 0
    outer loop
      vertex -2.4689060661890987 0.7489344673165128 -2.01
      vertex -2.3836091938791197 0.9873232555019317 2.01
      vertex -2.3836091938791197 0.9873232555019317 -2.01
    endloop
  endfacet
  facet normal -0.9039892931234439 0.4275550934302809 0
    outer loop
      vertex -2.3836091938791197 0.9873232555019317 -2.01
      vertex -2.2753568620187563 1.2162035810110738 2.01
      vertex -2.2753568620187563 1.2162035810110738 -2.01
    endloop
  endfacet
  facet normal 0 0 -1
    outer loop
      vertex -1.6367346731422054 1.9943669696758615 -2.01
      vertex -1.4333712011905737 2.1451915997405666 -2.01
      vertex -1.8244268521666527 0 -2.01
    endloop
  endfacet
  facet normal 0 0 -1
    outer loop
      vertex -1.4333712011905737 2.1451915997405666 -2.01
      vertex -1.2162035810110738 2.2753568620187563 -2.01
      vertex -1.8244268521666527 0 -2.01
    endloop
  endfacet
  facet normal 0 0 -1
    outer loop
      vertex -1.2162035810110738 2.2753568620187563 -2.01
      vertex -0.9873232555019317 2.3836091938791197 -2.01
      vertex -1.8244268521666527 0 -2.01
    endloop
  endfacet
  facet normal -0.8577286100002715 0.5141027441932229 0
    outer loop
      vertex -2.2753568620187563 1.2162035810110738 -2.01
      vertex -2.1451915997405666 1.4333712011905737 2.01
      vertex -2.1451915997405666 1.4333712011905737 -2.01
    endloop
  endfacet
  facet normal -0.8032075314806454 0.5956993044924326 0
    outer loop
      vertex -2.1451915997405666 1.4333712011905737 -2.01
      vertex -1.9943669696758615 1.6367346731422054 2.01
      vertex -1.9943669696758615 1.6367346731422054 -2.01
    endloop
  endfacet
  facet normal -0.7409511253549591 0.6715589548470184 0
    outer loop
      vertex -1.9943669696758615 1.6367346731422054 -2.01
      vertex -1.8243354954612927 1.8243354954612927 2.01
      vertex -1.8243354954612927 1.8243354954612927 -2.01
    endloop
  endfacet
  facet normal -0.6715589548470184 0.7409511253549591 0
    outer loop
      vertex -1.8243354954612927 1.8243354954612927 -2.01
      vertex -1.8243354954612927 1.8243354954612927 2.01
      vertex -1.6367346731422054 1.9943669696758615 -2.01
    endloop
  endfacet
  facet normal -0.5956993044924326 0.8032075314806454 0
    outer loop
      vertex -1.6367346731422054 1.9943669696758615 -2.01
      vertex -1.6367346731422054 1.9943669696758615 2.01
      vertex -1.4333712011905737 2.1451915997405666 -2.01
    endloop
  endfacet
  facet normal -0.5141027441932229 0.8577286100002715 0
    outer loop
      vertex -1.4333712011905737 2.1451915997405666 -2.01
      vertex -1.4333712011905737 2.1451915997405666 2.01
      vertex -1.2162035810110738 2.2753568620187563 -2.01
    endloop
  endfacet
  facet normal 0 0 -1
    outer loop
      vertex -0.9873232555019317 2.3836091938791197 -2.01
      vertex -0.912213422358036 1.5799999982118607 -2.01
      vertex -1.8244268521666527 0 -2.01
    endloop
  endfacet
  facet normal 0 0 -1
    outer loop
      vertex -0.9873232555019317 2.3836091938791197 -2.01
      vertex -0.7489344673165128 2.4689060661890987 -2.01
      vertex -0.912213422358036 1.5799999982118607 -2.01
    endloop
  endfacet
  facet normal 0 0 -1
    outer loop
      vertex -0.7489344673165128 2.4689060661890987 -2.01
      vertex -0.5033330308016108 2.5304260234403344 -2.01
      vertex -0.912213422358036 1.5799999982118607 -2.01
    endloop
  endfacet
  facet normal 0 0 -1
    outer loop
      vertex -0.5033330308016108 2.5304260234403344 -2.01
      vertex -0.25288422205026634 2.5675765948142684 -2.01
      vertex -0.912213422358036 1.5799999982118607 -2.01
    endloop
  endfacet
  facet normal 0 0 -1
    outer loop
      vertex -0.25288422205026634 2.5675765948142684 -2.01
      vertex 0 2.58 -2.01
      vertex -0.912213422358036 1.5799999982118607 -2.01
    endloop
  endfacet
  facet normal 0 0 -1
    outer loop
      vertex 0 2.58 -2.01
      vertex 0.25288422205026634 2.5675765948142684 -2.01
      vertex -0.912213422358036 1.5799999982118607 -2.01
    endloop
  endfacet
  facet normal 0 0 -1
    outer loop
      vertex 0.25288422205026634 2.5675765948142684 -2.01
      vertex 0.5033330308016108 2.5304260234403344 -2.01
      vertex -0.912213422358036 1.5799999982118607 -2.01
    endloop
  endfacet
  facet normal -0.4275550934302809 0.9039892931234439 0
    outer loop
      vertex -1.2162035810110738 2.2753568620187563 -2.01
      vertex -1.2162035810110738 2.2753568620187563 2.01
      vertex -0.9873232555019317 2.3836091938791197 -2.01
    endloop
  endfacet
  facet normal -0.33688985339221955 0.9415440651830209 0
    outer loop
      vertex -0.9873232555019317 2.3836091938791197 -2.01
      vertex -0.9873232555019317 2.3836091938791197 2.01
      vertex -0.7489344673165128 2.4689060661890987 -2.01
    endloop
  endfacet
  facet normal -0.24298017990326395 0.9700312531945439 0
    outer loop
      vertex -0.7489344673165128 2.4689060661890987 -2.01
      vertex -0.7489344673165128 2.4689060661890987 2.01
      vertex -0.5033330308016108 2.5304260234403344 -2.01
    endloop
  endfacet
  facet normal -0.14673047445536394 0.9891765099647808 0
    outer loop
      vertex -0.5033330308016108 2.5304260234403344 -2.01
      vertex -0.5033330308016108 2.5304260234403344 2.01
      vertex -0.25288422205026634 2.5675765948142684 -2.01
    endloop
  endfacet
  facet normal -0.049067674327416724 0.9987954562051725 0
    outer loop
      vertex -0.25288422205026634 2.5675765948142684 -2.01
      vertex -0.25288422205026634 2.5675765948142684 2.01
      vertex 0 2.58 -2.01
    endloop
  endfacet
  facet normal -0.9987954562051725 0.049067674327416724 0
    outer loop
      vertex -2.58 0 -2.01
      vertex -2.58 0 2.01
      vertex -2.5675765948142684 0.25288422205026634 2.01
    endloop
  endfacet
  facet normal -0.9891765099647808 0.14673047445536394 0
    outer loop
      vertex -2.5675765948142684 0.25288422205026634 -2.01
      vertex -2.5675765948142684 0.25288422205026634 2.01
      vertex -2.5304260234403344 0.5033330308016108 2.01
    endloop
  endfacet
  facet normal -0.9700312531945439 0.24298017990326395 0
    outer loop
      vertex -2.5304260234403344 0.5033330308016108 -2.01
      vertex -2.5304260234403344 0.5033330308016108 2.01
      vertex -2.4689060661890987 0.7489344673165128 2.01
    endloop
  endfacet
  facet normal -0.9415440651830209 0.33688985339221955 0
    outer loop
      vertex -2.4689060661890987 0.7489344673165128 -2.01
      vertex -2.4689060661890987 0.7489344673165128 2.01
      vertex -2.3836091938791197 0.9873232555019317 2.01
    endloop
  endfacet
  facet normal -0.9039892931234439 0.4275550934302809 0
    outer loop
      vertex -2.3836091938791197 0.9873232555019317 -2.01
      vertex -2.3836091938791197 0.9873232555019317 2.01
      vertex -2.2753568620187563 1.2162035810110738 2.01
    endloop
  endfacet
  facet normal -0.8577286100002715 0.5141027441932229 0
    outer loop
      vertex -2.2753568620187563 1.2162035810110738 -2.01
      vertex -2.2753568620187563 1.2162035810110738 2.01
      vertex -2.1451915997405666 1.4333712011905737 2.01
    endloop
  endfacet
  facet normal 0 0 1
    outer loop
      vertex -2.5675765948142684 -0.25288422205026634 2.01
      vertex -2.5675765948142684 0.25288422205026634 2.01
      vertex -2.58 0 2.01
    endloop
  endfacet
  facet normal 0 0 1
    outer loop
      vertex -2.5304260234403344 -0.5033330308016108 2.01
      vertex -2.5304260234403344 0.5033330308016108 2.01
      vertex -2.5675765948142684 0.25288422205026634 2.01
    endloop
  endfacet
  facet normal 0 0 1
    outer loop
      vertex -2.4689060661890987 -0.7489344673165128 2.01
      vertex -2.4689060661890987 0.7489344673165128 2.01
      vertex -2.5304260234403344 0.5033330308016108 2.01
    endloop
  endfacet
  facet normal 0 0 1
    outer loop
      vertex -2.3836091938791197 -0.9873232555019317 2.01
      vertex -2.3836091938791197 0.9873232555019317 2.01
      vertex -2.4689060661890987 0.7489344673165128 2.01
    endloop
  endfacet
  facet normal 0 0 1
    outer loop
      vertex -2.2753568620187563 -1.2162035810110738 2.01
      vertex -2.2753568620187563 1.2162035810110738 2.01
      vertex -2.3836091938791197 0.9873232555019317 2.01
    endloop
  endfacet
  facet normal 0 0 1
    outer loop
      vertex -2.1451915997405666 -1.4333712011905737 2.01
      vertex -2.1451915997405666 1.4333712011905737 2.01
      vertex -2.2753568620187563 1.2162035810110738 2.01
    endloop
  endfacet
  facet normal 0 0 1
    outer loop
      vertex -1.9943669696758615 -1.6367346731422054 2.01
      vertex -1.9943669696758615 1.6367346731422054 2.01
      vertex -2.1451915997405666 1.4333712011905737 2.01
    endloop
  endfacet
  facet normal 0 0 1
    outer loop
      vertex -1.9943669696758615 1.6367346731422054 2.01
      vertex -1.8244268521666527 0 2.01
      vertex -0.912213422358036 1.5799999982118607 2.01
    endloop
  endfacet
  facet normal -0.8032075314806454 0.5956993044924326 0
    outer loop
      vertex -2.1451915997405666 1.4333712011905737 -2.01
      vertex -2.1451915997405666 1.4333712011905737 2.01
      vertex -1.9943669696758615 1.6367346731422054 2.01
    endloop
  endfacet
  facet normal -0.7409511253549591 0.6715589548470184 0
    outer loop
      vertex -1.9943669696758615 1.6367346731422054 -2.01
      vertex -1.9943669696758615 1.6367346731422054 2.01
      vertex -1.8243354954612927 1.8243354954612927 2.01
    endloop
  endfacet
  facet normal -0.6715589548470184 0.7409511253549591 0
    outer loop
      vertex -1.6367346731422054 1.9943669696758615 -2.01
      vertex -1.8243354954612927 1.8243354954612927 2.01
      vertex -1.6367346731422054 1.9943669696758615 2.01
    endloop
  endfacet
  facet normal -0.5956993044924326 0.8032075314806454 0
    outer loop
      vertex -1.4333712011905737 2.1451915997405666 -2.01
      vertex -1.6367346731422054 1.9943669696758615 2.01
      vertex -1.4333712011905737 2.1451915997405666 2.01
    endloop
  endfacet
  facet normal 0 0 1
    outer loop
      vertex -1.9943669696758615 1.6367346731422054 2.01
      vertex -0.912213422358036 1.5799999982118607 2.01
      vertex -1.8243354954612927 1.8243354954612927 2.01
    endloop
  endfacet
  facet normal 0 0 1
    outer loop
      vertex -1.8243354954612927 1.8243354954612927 2.01
      vertex -0.912213422358036 1.5799999982118607 2.01
      vertex -1.6367346731422054 1.9943669696758615 2.01
    endloop
  endfacet
  facet normal 0 0 1
    outer loop
      vertex -1.6367346731422054 1.9943669696758615 2.01
      vertex -0.912213422358036 1.5799999982118607 2.01
      vertex -1.4333712011905737 2.1451915997405666 2.01
    endloop
  endfacet
  facet normal -0.5141027441932229 0.8577286100002715 0
    outer loop
      vertex -1.2162035810110738 2.2753568620187563 -2.01
      vertex -1.4333712011905737 2.1451915997405666 2.01
      vertex -1.2162035810110738 2.2753568620187563 2.01
    endloop
  endfacet
  facet normal -0.4275550934302809 0.9039892931234439 0
    outer loop
      vertex -0.9873232555019317 2.3836091938791197 -2.01
      vertex -1.2162035810110738 2.2753568620187563 2.01
      vertex -0.9873232555019317 2.3836091938791197 2.01
    endloop
  endfacet
  facet normal -0.33688985339221955 0.9415440651830209 0
    outer loop
      vertex -0.7489344673165128 2.4689060661890987 -2.01
      vertex -0.9873232555019317 2.3836091938791197 2.01
      vertex -0.7489344673165128 2.4689060661890987 2.01
    endloop
  endfacet
  facet normal -0.24298017990326395 0.9700312531945439 0
    outer loop
      vertex -0.5033330308016108 2.5304260234403344 -2.01
      vertex -0.7489344673165128 2.4689060661890987 2.01
      vertex -0.5033330308016108 2.5304260234403344 2.01
    endloop
  endfacet
  facet normal -0.14673047445536394 0.9891765099647808 0
    outer loop
      vertex -0.25288422205026634 2.5675765948142684 -2.01
      vertex -0.5033330308016108 2.5304260234403344 2.01
      vertex -0.25288422205026634 2.5675765948142684 2.01
    endloop
  endfacet
  facet normal -0.049067674327416724 0.9987954562051725 0
    outer loop
      vertex -0.25288422205026634 2.5675765948142684 2.01
      vertex 0 2.58 2.01
      vertex 0 2.58 -2.01
    endloop
  endfacet
  facet normal 0 0 1
    outer loop
      vertex -1.4333712011905737 2.1451915997405666 2.01
      vertex -0.912213422358036 1.5799999982118607 2.01
      vertex -1.2162035810110738 2.2753568620187563 2.01
    endloop
  endfacet
  facet normal 0 0 1
    outer loop
      vertex -1.2162035810110738 2.2753568620187563 2.01
      vertex -0.912213422358036 1.5799999982118607 2.01
      vertex -0.9873232555019317 2.3836091938791197 2.01
    endloop
  endfacet
  facet normal 0 0 1
    outer loop
      vertex -0.9873232555019317 2.3836091938791197 2.01
      vertex -0.912213422358036 1.5799999982118607 2.01
      vertex 0.912213422358036 1.5799999982118607 2.01
    endloop
  endfacet
  facet normal 0 0 1
    outer loop
      vertex -0.9873232555019317 2.3836091938791197 2.01
      vertex 0.912213422358036 1.5799999982118607 2.01
      vertex -0.7489344673165128 2.4689060661890987 2.01
    endloop
  endfacet
  facet normal 0 0 1
    outer loop
      vertex -0.7489344673165128 2.4689060661890987 2.01
      vertex 0.912213422358036 1.5799999982118607 2.01
      vertex -0.5033330308016108 2.5304260234403344 2.01
    endloop
  endfacet
  facet normal 0 0 -1
    outer loop
      vertex -0.5033330308016108 -2.5304260234403344 -2.01
      vertex 0.912213422358036 -1.5799999982118607 -2.01
      vertex -0.25288422205026634 -2.5675765948142684 -2.01
    endloop
  endfacet
  facet normal 0 0 -1
    outer loop
      vertex -0.25288422205026634 -2.5675765948142684 -2.01
      vertex 0.912213422358036 -1.5799999982118607 -2.01
      vertex 0 -2.58 -2.01
    endloop
  endfacet
  facet normal 0 0 -1
    outer loop
      vertex 0 -2.58 -2.01
      vertex 0.912213422358036 -1.5799999982118607 -2.01
      vertex 0.25288422205026634 -2.5675765948142684 -2.01
    endloop
  endfacet
  facet normal 0 0 -1
    outer loop
      vertex 0.25288422205026634 -2.5675765948142684 -2.01
      vertex 0.912213422358036 -1.5799999982118607 -2.01
      vertex 0.5033330308016108 -2.5304260234403344 -2.01
    endloop
  endfacet
  facet normal 0 0 -1
    outer loop
      vertex 0.5033330308016108 -2.5304260234403344 -2.01
      vertex 0.912213422358036 -1.5799999982118607 -2.01
      vertex 0.7489344673165128 -2.4689060661890987 -2.01
    endloop
  endfacet
  facet normal 0 0 -1
    outer loop
      vertex 0.7489344673165128 -2.4689060661890987 -2.01
      vertex 0.912213422358036 -1.5799999982118607 -2.01
      vertex 0.9873232555019317 -2.3836091938791197 -2.01
    endloop
  endfacet
  facet normal 0 0 -1
    outer loop
      vertex 0.9873232555019317 -2.3836091938791197 -2.01
      vertex 0.912213422358036 -1.5799999982118607 -2.01
      vertex 1.8244268521666527 0 -2.01
    endloop
  endfacet
  facet normal 0.049067674327416724 -0.9987954562051725 0
    outer loop
      vertex 0 -2.58 -2.01
      vertex 0.25288422205026634 -2.5675765948142684 -2.01
      vertex 0.25288422205026634 -2.5675765948142684 2.01
    endloop
  endfacet
  facet normal 0.14673047445536394 -0.9891765099647808 0
    outer loop
      vertex 0.25288422205026634 -2.5675765948142684 -2.01
      vertex 0.5033330308016108 -2.5304260234403344 -2.01
      vertex 0.5033330308016108 -2.5304260234403344 2.01
    endloop
  endfacet
  facet normal 0.24298017990326395 -0.9700312531945439 0
    outer loop
      vertex 0.5033330308016108 -2.5304260234403344 -2.01
      vertex 0.7489344673165128 -2.4689060661890987 -2.01
      vertex 0.7489344673165128 -2.4689060661890987 2.01
    endloop
  endfacet
  facet normal 0.33688985339221955 -0.9415440651830209 0
    outer loop
      vertex 0.7489344673165128 -2.4689060661890987 -2.01
      vertex 0.9873232555019317 -2.3836091938791197 -2.01
      vertex 0.9873232555019317 -2.3836091938791197 2.01
    endloop
  endfacet
  facet normal 0.4275550934302809 -0.9039892931234439 0
    outer loop
      vertex 0.9873232555019317 -2.3836091938791197 -2.01
      vertex 1.2162035810110738 -2.2753568620187563 -2.01
      vertex 1.2162035810110738 -2.2753568620187563 2.01
    endloop
  endfacet
  facet normal 0 0 -1
    outer loop
      vertex 0.9873232555019317 -2.3836091938791197 -2.01
      vertex 1.8244268521666527 0 -2.01
      vertex 1.2162035810110738 -2.2753568620187563 -2.01
    endloop
  endfacet
  facet normal 0 0 -1
    outer loop
      vertex 1.2162035810110738 -2.2753568620187563 -2.01
      vertex 1.8244268521666527 0 -2.01
      vertex 1.4333712011905737 -2.1451915997405666 -2.01
    endloop
  endfacet
  facet normal 0 0 -1
    outer loop
      vertex 1.4333712011905737 -2.1451915997405666 -2.01
      vertex 1.8244268521666527 0 -2.01
      vertex 1.6367346731422054 -1.9943669696758615 -2.01
    endloop
  endfacet
  facet normal 0.5141027441932229 -0.8577286100002715 0
    outer loop
      vertex 1.2162035810110738 -2.2753568620187563 -2.01
      vertex 1.4333712011905737 -2.1451915997405666 -2.01
      vertex 1.4333712011905737 -2.1451915997405666 2.01
    endloop
  endfacet
  facet normal 0.5956993044924326 -0.8032075314806454 0
    outer loop
      vertex 1.4333712011905737 -2.1451915997405666 -2.01
      vertex 1.6367346731422054 -1.9943669696758615 -2.01
      vertex 1.6367346731422054 -1.9943669696758615 2.01
    endloop
  endfacet
  facet normal 0.6715589548470184 -0.7409511253549591 0
    outer loop
      vertex 1.6367346731422054 -1.9943669696758615 -2.01
      vertex 1.8243354954612927 -1.8243354954612927 -2.01
      vertex 1.8243354954612927 -1.8243354954612927 2.01
    endloop
  endfacet
  facet normal 0.7409511253549591 -0.6715589548470184 0
    outer loop
      vertex 1.8243354954612927 -1.8243354954612927 -2.01
      vertex 1.9943669696758615 -1.6367346731422054 -2.01
      vertex 1.8243354954612927 -1.8243354954612927 2.01
    endloop
  endfacet
  facet normal 0.8032075314806454 -0.5956993044924326 0
    outer loop
      vertex 1.9943669696758615 -1.6367346731422054 -2.01
      vertex 2.1451915997405666 -1.4333712011905737 -2.01
      vertex 1.9943669696758615 -1.6367346731422054 2.01
    endloop
  endfacet
  facet normal 0.8577286100002715 -0.5141027441932229 0
    outer loop
      vertex 2.1451915997405666 -1.4333712011905737 -2.01
      vertex 2.2753568620187563 -1.2162035810110738 -2.01
      vertex 2.1451915997405666 -1.4333712011905737 2.01
    endloop
  endfacet
  facet normal 0 0 -1
    outer loop
      vertex 1.6367346731422054 -1.9943669696758615 -2.01
      vertex 1.8244268521666527 0 -2.01
      vertex 1.8243354954612927 -1.8243354954612927 -2.01
    endloop
  endfacet
  facet normal 0 0 -1
    outer loop
      vertex 1.8243354954612927 -1.8243354954612927 -2.01
      vertex 1.8244268521666527 0 -2.01
      vertex 1.9943669696758615 1.6367346731422054 -2.01
    endloop
  endfacet
  facet normal 0 0 -1
    outer loop
      vertex 1.8243354954612927 -1.8243354954612927 -2.01
      vertex 1.9943669696758615 1.6367346731422054 -2.01
      vertex 1.9943669696758615 -1.6367346731422054 -2.01
    endloop
  endfacet
  facet normal 0 0 -1
    outer loop
      vertex 1.9943669696758615 -1.6367346731422054 -2.01
      vertex 2.1451915997405666 1.4333712011905737 -2.01
      vertex 2.1451915997405666 -1.4333712011905737 -2.01
    endloop
  endfacet
  facet normal 0 0 -1
    outer loop
      vertex 2.1451915997405666 -1.4333712011905737 -2.01
      vertex 2.2753568620187563 1.2162035810110738 -2.01
      vertex 2.2753568620187563 -1.2162035810110738 -2.01
    endloop
  endfacet
  facet normal 0 0 -1
    outer loop
      vertex 2.2753568620187563 -1.2162035810110738 -2.01
      vertex 2.3836091938791197 0.9873232555019317 -2.01
      vertex 2.3836091938791197 -0.9873232555019317 -2.01
    endloop
  endfacet
  facet normal 0 0 -1
    outer loop
      vertex 2.3836091938791197 -0.9873232555019317 -2.01
      vertex 2.4689060661890987 0.7489344673165128 -2.01
      vertex 2.4689060661890987 -0.7489344673165128 -2.01
    endloop
  endfacet
  facet normal 0 0 -1
    outer loop
      vertex 2.4689060661890987 -0.7489344673165128 -2.01
      vertex 2.5304260234403344 0.5033330308016108 -2.01
      vertex 2.5304260234403344 -0.5033330308016108 -2.01
    endloop
  endfacet
  facet normal 0 0 -1
    outer loop
      vertex 2.5304260234403344 -0.5033330308016108 -2.01
      vertex 2.5675765948142684 0.25288422205026634 -2.01
      vertex 2.5675765948142684 -0.25288422205026634 -2.01
    endloop
  endfacet
  facet normal 0.9039892931234439 -0.4275550934302809 0
    outer loop
      vertex 2.2753568620187563 -1.2162035810110738 -2.01
      vertex 2.3836091938791197 -0.9873232555019317 -2.01
      vertex 2.2753568620187563 -1.2162035810110738 2.01
    endloop
  endfacet
  facet normal 0.9415440651830209 -0.33688985339221955 0
    outer loop
      vertex 2.3836091938791197 -0.9873232555019317 -2.01
      vertex 2.4689060661890987 -0.7489344673165128 -2.01
      vertex 2.3836091938791197 -0.9873232555019317 2.01
    endloop
  endfacet
  facet normal 0.9700312531945439 -0.24298017990326395 0
    outer loop
      vertex 2.4689060661890987 -0.7489344673165128 -2.01
      vertex 2.5304260234403344 -0.5033330308016108 -2.01
      vertex 2.4689060661890987 -0.7489344673165128 2.01
    endloop
  endfacet
  facet normal 0.9891765099647808 -0.14673047445536394 0
    outer loop
      vertex 2.5304260234403344 -0.5033330308016108 -2.01
      vertex 2.5675765948142684 -0.25288422205026634 -2.01
      vertex 2.5304260234403344 -0.5033330308016108 2.01
    endloop
  endfacet
  facet normal 0.9987954562051725 -0.049067674327416724 0
    outer loop
      vertex 2.5675765948142684 -0.25288422205026634 -2.01
      vertex 2.58 0 -2.01
      vertex 2.5675765948142684 -0.25288422205026634 2.01
    endloop
  endfacet
  facet normal 0.049067674327416724 -0.9987954562051725 0
    outer loop
      vertex 0 -2.58 -2.01
      vertex 0.25288422205026634 -2.5675765948142684 2.01
      vertex 0 -2.58 2.01
    endloop
  endfacet
  facet normal 0.14673047445536394 -0.9891765099647808 0
    outer loop
      vertex 0.25288422205026634 -2.5675765948142684 -2.01
      vertex 0.5033330308016108 -2.5304260234403344 2.01
      vertex 0.25288422205026634 -2.5675765948142684 2.01
    endloop
  endfacet
  facet normal 0.24298017990326395 -0.9700312531945439 0
    outer loop
      vertex 0.5033330308016108 -2.5304260234403344 -2.01
      vertex 0.7489344673165128 -2.4689060661890987 2.01
      vertex 0.5033330308016108 -2.5304260234403344 2.01
    endloop
  endfacet
  facet normal 0.33688985339221955 -0.9415440651830209 0
    outer loop
      vertex 0.7489344673165128 -2.4689060661890987 -2.01
      vertex 0.9873232555019317 -2.3836091938791197 2.01
      vertex 0.7489344673165128 -2.4689060661890987 2.01
    endloop
  endfacet
  facet normal 0.4275550934302809 -0.9039892931234439 0
    outer loop
      vertex 0.9873232555019317 -2.3836091938791197 -2.01
      vertex 1.2162035810110738 -2.2753568620187563 2.01
      vertex 0.9873232555019317 -2.3836091938791197 2.01
    endloop
  endfacet
  facet normal 0.5141027441932229 -0.8577286100002715 0
    outer loop
      vertex 1.2162035810110738 -2.2753568620187563 -2.01
      vertex 1.4333712011905737 -2.1451915997405666 2.01
      vertex 1.2162035810110738 -2.2753568620187563 2.01
    endloop
  endfacet
  facet normal 0 0 1
    outer loop
      vertex 0.5033330308016108 -2.5304260234403344 2.01
      vertex 0.7489344673165128 -2.4689060661890987 2.01
      vertex -0.912213422358036 -1.5799999982118607 2.01
    endloop
  endfacet
  facet normal 0 0 1
    outer loop
      vertex 0.7489344673165128 -2.4689060661890987 2.01
      vertex 0.9873232555019317 -2.3836091938791197 2.01
      vertex -0.912213422358036 -1.5799999982118607 2.01
    endloop
  endfacet
  facet normal 0 0 1
    outer loop
      vertex 0.9873232555019317 -2.3836091938791197 2.01
      vertex 0.912213422358036 -1.5799999982118607 2.01
      vertex -0.912213422358036 -1.5799999982118607 2.01
    endloop
  endfacet
  facet normal 0 0 1
    outer loop
      vertex 0.9873232555019317 -2.3836091938791197 2.01
      vertex 1.2162035810110738 -2.2753568620187563 2.01
      vertex 0.912213422358036 -1.5799999982118607 2.01
    endloop
  endfacet
  facet normal 0 0 1
    outer loop
      vertex 1.2162035810110738 -2.2753568620187563 2.01
      vertex 1.4333712011905737 -2.1451915997405666 2.01
      vertex 0.912213422358036 -1.5799999982118607 2.01
    endloop
  endfacet
  facet normal 0.5956993044924326 -0.8032075314806454 0
    outer loop
      vertex 1.4333712011905737 -2.1451915997405666 -2.01
      vertex 1.6367346731422054 -1.9943669696758615 2.01
      vertex 1.4333712011905737 -2.1451915997405666 2.01
    endloop
  endfacet
  facet normal 0.6715589548470184 -0.7409511253549591 0
    outer loop
      vertex 1.6367346731422054 -1.9943669696758615 -2.01
      vertex 1.8243354954612927 -1.8243354954612927 2.01
      vertex 1.6367346731422054 -1.9943669696758615 2.01
    endloop
  endfacet
  facet normal 0.7409511253549591 -0.6715589548470184 0
    outer loop
      vertex 1.9943669696758615 -1.6367346731422054 -2.01
      vertex 1.9943669696758615 -1.6367346731422054 2.01
      vertex 1.8243354954612927 -1.8243354954612927 2.01
    endloop
  endfacet
  facet normal 0.8032075314806454 -0.5956993044924326 0
    outer loop
      vertex 2.1451915997405666 -1.4333712011905737 -2.01
      vertex 2.1451915997405666 -1.4333712011905737 2.01
      vertex 1.9943669696758615 -1.6367346731422054 2.01
    endloop
  endfacet
  facet normal 0 0 1
    outer loop
      vertex 1.4333712011905737 -2.1451915997405666 2.01
      vertex 1.6367346731422054 -1.9943669696758615 2.01
      vertex 0.912213422358036 -1.5799999982118607 2.01
    endloop
  endfacet
  facet normal 0 0 1
    outer loop
      vertex 1.6367346731422054 -1.9943669696758615 2.01
      vertex 1.8243354954612927 -1.8243354954612927 2.01
      vertex 0.912213422358036 -1.5799999982118607 2.01
    endloop
  endfacet
  facet normal 0 0 1
    outer loop
      vertex 1.8243354954612927 -1.8243354954612927 2.01
      vertex 1.9943669696758615 -1.6367346731422054 2.01
      vertex 0.912213422358036 -1.5799999982118607 2.01
    endloop
  endfacet
  facet normal 0.8577286100002715 -0.5141027441932229 0
    outer loop
      vertex 2.2753568620187563 -1.2162035810110738 -2.01
      vertex 2.2753568620187563 -1.2162035810110738 2.01
      vertex 2.1451915997405666 -1.4333712011905737 2.01
    endloop
  endfacet
  facet normal 0.9039892931234439 -0.4275550934302809 0
    outer loop
      vertex 2.3836091938791197 -0.9873232555019317 -2.01
      vertex 2.3836091938791197 -0.9873232555019317 2.01
      vertex 2.2753568620187563 -1.2162035810110738 2.01
    endloop
  endfacet
  facet normal 0.9415440651830209 -0.33688985339221955 0
    outer loop
      vertex 2.4689060661890987 -0.7489344673165128 -2.01
      vertex 2.4689060661890987 -0.7489344673165128 2.01
      vertex 2.3836091938791197 -0.9873232555019317 2.01
    endloop
  endfacet
  facet normal 0.9700312531945439 -0.24298017990326395 0
    outer loop
      vertex 2.5304260234403344 -0.5033330308016108 -2.01
      vertex 2.5304260234403344 -0.5033330308016108 2.01
      vertex 2.4689060661890987 -0.7489344673165128 2.01
    endloop
  endfacet
  facet normal 0.9891765099647808 -0.14673047445536394 0
    outer loop
      vertex 2.5675765948142684 -0.25288422205026634 -2.01
      vertex 2.5675765948142684 -0.25288422205026634 2.01
      vertex 2.5304260234403344 -0.5033330308016108 2.01
    endloop
  endfacet
  facet normal 0.9987954562051725 -0.049067674327416724 0
    outer loop
      vertex 2.5675765948142684 -0.25288422205026634 2.01
      vertex 2.58 0 -2.01
      vertex 2.58 0 2.01
    endloop
  endfacet
  facet normal 0 0 1
    outer loop
      vertex 1.9943669696758615 -1.6367346731422054 2.01
      vertex 1.8244268521666527 0 2.01
      vertex 0.912213422358036 -1.5799999982118607 2.01
    endloop
  endfacet
  facet normal 0 0 1
    outer loop
      vertex 1.9943669696758615 -1.6367346731422054 2.01
      vertex 2.1451915997405666 -1.4333712011905737 2.01
      vertex 1.9943669696758615 1.6367346731422054 2.01
    endloop
  endfacet
  facet normal 0 0 1
    outer loop
      vertex 2.1451915997405666 -1.4333712011905737 2.01
      vertex 2.2753568620187563 -1.2162035810110738 2.01
      vertex 2.1451915997405666 1.4333712011905737 2.01
    endloop
  endfacet
  facet normal 0 0 1
    outer loop
      vertex 2.2753568620187563 -1.2162035810110738 2.01
      vertex 2.3836091938791197 -0.9873232555019317 2.01
      vertex 2.2753568620187563 1.2162035810110738 2.01
    endloop
  endfacet
  facet normal 0 0 1
    outer loop
      vertex 2.3836091938791197 -0.9873232555019317 2.01
      vertex 2.4689060661890987 -0.7489344673165128 2.01
      vertex 2.3836091938791197 0.9873232555019317 2.01
    endloop
  endfacet
  facet normal 0 0 1
    outer loop
      vertex 2.4689060661890987 -0.7489344673165128 2.01
      vertex 2.5304260234403344 -0.5033330308016108 2.01
      vertex 2.4689060661890987 0.7489344673165128 2.01
    endloop
  endfacet
  facet normal 0 0 1
    outer loop
      vertex 2.5304260234403344 -0.5033330308016108 2.01
      vertex 2.5675765948142684 -0.25288422205026634 2.01
      vertex 2.5304260234403344 0.5033330308016108 2.01
    endloop
  endfacet
  facet normal 0 0 -1
    outer loop
      vertex 0.9873232555019317 2.3836091938791197 -2.01
      vertex 0.912213422358036 1.5799999982118607 -2.01
      vertex -0.912213422358036 1.5799999982118607 -2.01
    endloop
  endfacet
  facet normal 0 0 -1
    outer loop
      vertex 0.5033330308016108 2.5304260234403344 -2.01
      vertex 0.7489344673165128 2.4689060661890987 -2.01
      vertex -0.912213422358036 1.5799999982118607 -2.01
    endloop
  endfacet
  facet normal 0 0 -1
    outer loop
      vertex 0.7489344673165128 2.4689060661890987 -2.01
      vertex 0.9873232555019317 2.3836091938791197 -2.01
      vertex -0.912213422358036 1.5799999982118607 -2.01
    endloop
  endfacet
  facet normal 0 0 -1
    outer loop
      vertex 0.9873232555019317 2.3836091938791197 -2.01
      vertex 1.2162035810110738 2.2753568620187563 -2.01
      vertex 0.912213422358036 1.5799999982118607 -2.01
    endloop
  endfacet
  facet normal 0 0 -1
    outer loop
      vertex 1.2162035810110738 2.2753568620187563 -2.01
      vertex 1.4333712011905737 2.1451915997405666 -2.01
      vertex 0.912213422358036 1.5799999982118607 -2.01
    endloop
  endfacet
  facet normal 0.049067674327416724 0.9987954562051725 0
    outer loop
      vertex 0 2.58 -2.01
      vertex 0 2.58 2.01
      vertex 0.25288422205026634 2.5675765948142684 -2.01
    endloop
  endfacet
  facet normal 0.14673047445536394 0.9891765099647808 0
    outer loop
      vertex 0.25288422205026634 2.5675765948142684 -2.01
      vertex 0.25288422205026634 2.5675765948142684 2.01
      vertex 0.5033330308016108 2.5304260234403344 -2.01
    endloop
  endfacet
  facet normal 0.24298017990326395 0.9700312531945439 0
    outer loop
      vertex 0.5033330308016108 2.5304260234403344 -2.01
      vertex 0.5033330308016108 2.5304260234403344 2.01
      vertex 0.7489344673165128 2.4689060661890987 -2.01
    endloop
  endfacet
  facet normal 0.33688985339221955 0.9415440651830209 0
    outer loop
      vertex 0.7489344673165128 2.4689060661890987 -2.01
      vertex 0.7489344673165128 2.4689060661890987 2.01
      vertex 0.9873232555019317 2.3836091938791197 -2.01
    endloop
  endfacet
  facet normal 0.5141027441932229 0.8577286100002715 0
    outer loop
      vertex 1.2162035810110738 2.2753568620187563 -2.01
      vertex 1.2162035810110738 2.2753568620187563 2.01
      vertex 1.4333712011905737 2.1451915997405666 -2.01
    endloop
  endfacet
  facet normal 0.4275550934302809 0.9039892931234439 0
    outer loop
      vertex 0.9873232555019317 2.3836091938791197 -2.01
      vertex 0.9873232555019317 2.3836091938791197 2.01
      vertex 1.2162035810110738 2.2753568620187563 -2.01
    endloop
  endfacet
  facet normal 0 0 -1
    outer loop
      vertex 1.9943669696758615 1.6367346731422054 -2.01
      vertex 1.8244268521666527 0 -2.01
      vertex 0.912213422358036 1.5799999982118607 -2.01
    endloop
  endfacet
  facet normal 0 0 -1
    outer loop
      vertex 1.9943669696758615 -1.6367346731422054 -2.01
      vertex 1.9943669696758615 1.6367346731422054 -2.01
      vertex 2.1451915997405666 1.4333712011905737 -2.01
    endloop
  endfacet
  facet normal 0 0 -1
    outer loop
      vertex 2.1451915997405666 -1.4333712011905737 -2.01
      vertex 2.1451915997405666 1.4333712011905737 -2.01
      vertex 2.2753568620187563 1.2162035810110738 -2.01
    endloop
  endfacet
  facet normal 0 0 -1
    outer loop
      vertex 2.3836091938791197 -0.9873232555019317 -2.01
      vertex 2.3836091938791197 0.9873232555019317 -2.01
      vertex 2.4689060661890987 0.7489344673165128 -2.01
    endloop
  endfacet
  facet normal 0 0 -1
    outer loop
      vertex 2.5675765948142684 -0.25288422205026634 -2.01
      vertex 2.5675765948142684 0.25288422205026634 -2.01
      vertex 2.58 0 -2.01
    endloop
  endfacet
  facet normal 0 0 -1
    outer loop
      vertex 2.5304260234403344 -0.5033330308016108 -2.01
      vertex 2.5304260234403344 0.5033330308016108 -2.01
      vertex 2.5675765948142684 0.25288422205026634 -2.01
    endloop
  endfacet
  facet normal 0 0 -1
    outer loop
      vertex 2.4689060661890987 -0.7489344673165128 -2.01
      vertex 2.4689060661890987 0.7489344673165128 -2.01
      vertex 2.5304260234403344 0.5033330308016108 -2.01
    endloop
  endfacet
  facet normal 0 0 -1
    outer loop
      vertex 2.2753568620187563 -1.2162035810110738 -2.01
      vertex 2.2753568620187563 1.2162035810110738 -2.01
      vertex 2.3836091938791197 0.9873232555019317 -2.01
    endloop
  endfacet
  facet normal 0.9987954562051725 0.049067674327416724 0
    outer loop
      vertex 2.58 0 -2.01
      vertex 2.5675765948142684 0.25288422205026634 -2.01
      vertex 2.58 0 2.01
    endloop
  endfacet
  facet normal 0.9891765099647808 0.14673047445536394 0
    outer loop
      vertex 2.5675765948142684 0.25288422205026634 -2.01
      vertex 2.5304260234403344 0.5033330308016108 -2.01
      vertex 2.5675765948142684 0.25288422205026634 2.01
    endloop
  endfacet
  facet normal 0.9700312531945439 0.24298017990326395 0
    outer loop
      vertex 2.5304260234403344 0.5033330308016108 -2.01
      vertex 2.4689060661890987 0.7489344673165128 -2.01
      vertex 2.5304260234403344 0.5033330308016108 2.01
    endloop
  endfacet
  facet normal 0.8577286100002715 0.5141027441932229 0
    outer loop
      vertex 2.2753568620187563 1.2162035810110738 -2.01
      vertex 2.1451915997405666 1.4333712011905737 -2.01
      vertex 2.2753568620187563 1.2162035810110738 2.01
    endloop
  endfacet
  facet normal 0.9415440651830209 0.33688985339221955 0
    outer loop
      vertex 2.4689060661890987 0.7489344673165128 -2.01
      vertex 2.3836091938791197 0.9873232555019317 -2.01
      vertex 2.4689060661890987 0.7489344673165128 2.01
    endloop
  endfacet
  facet normal 0.9039892931234439 0.4275550934302809 0
    outer loop
      vertex 2.3836091938791197 0.9873232555019317 -2.01
      vertex 2.2753568620187563 1.2162035810110738 -2.01
      vertex 2.3836091938791197 0.9873232555019317 2.01
    endloop
  endfacet
  facet normal 0 0 -1
    outer loop
      vertex 1.4333712011905737 2.1451915997405666 -2.01
      vertex 1.6367346731422054 1.9943669696758615 -2.01
      vertex 0.912213422358036 1.5799999982118607 -2.01
    endloop
  endfacet
  facet normal 0 0 -1
    outer loop
      vertex 1.8243354954612927 1.8243354954612927 -2.01
      vertex 1.9943669696758615 1.6367346731422054 -2.01
      vertex 0.912213422358036 1.5799999982118607 -2.01
    endloop
  endfacet
  facet normal 0 0 -1
    outer loop
      vertex 1.8243354954612927 1.8243354954612927 -2.01
      vertex 0.912213422358036 1.5799999982118607 -2.01
      vertex 1.6367346731422054 1.9943669696758615 -2.01
    endloop
  endfacet
  facet normal 0.5956993044924326 0.8032075314806454 0
    outer loop
      vertex 1.4333712011905737 2.1451915997405666 -2.01
      vertex 1.4333712011905737 2.1451915997405666 2.01
      vertex 1.6367346731422054 1.9943669696758615 -2.01
    endloop
  endfacet
  facet normal 0.6715589548470184 0.7409511253549591 0
    outer loop
      vertex 1.8243354954612927 1.8243354954612927 -2.01
      vertex 1.6367346731422054 1.9943669696758615 -2.01
      vertex 1.6367346731422054 1.9943669696758615 2.01
    endloop
  endfacet
  facet normal 0.8032075314806454 0.5956993044924326 0
    outer loop
      vertex 2.1451915997405666 1.4333712011905737 -2.01
      vertex 1.9943669696758615 1.6367346731422054 -2.01
      vertex 2.1451915997405666 1.4333712011905737 2.01
    endloop
  endfacet
  facet normal 0.7409511253549591 0.6715589548470184 0
    outer loop
      vertex 1.8243354954612927 1.8243354954612927 -2.01
      vertex 1.9943669696758615 1.6367346731422054 2.01
      vertex 1.9943669696758615 1.6367346731422054 -2.01
    endloop
  endfacet
  facet normal 0.049067674327416724 0.9987954562051725 0
    outer loop
      vertex 0.25288422205026634 2.5675765948142684 -2.01
      vertex 0 2.58 2.01
      vertex 0.25288422205026634 2.5675765948142684 2.01
    endloop
  endfacet
  facet normal 0.14673047445536394 0.9891765099647808 0
    outer loop
      vertex 0.5033330308016108 2.5304260234403344 -2.01
      vertex 0.25288422205026634 2.5675765948142684 2.01
      vertex 0.5033330308016108 2.5304260234403344 2.01
    endloop
  endfacet
  facet normal 0.24298017990326395 0.9700312531945439 0
    outer loop
      vertex 0.7489344673165128 2.4689060661890987 -2.01
      vertex 0.5033330308016108 2.5304260234403344 2.01
      vertex 0.7489344673165128 2.4689060661890987 2.01
    endloop
  endfacet
  facet normal 0.33688985339221955 0.9415440651830209 0
    outer loop
      vertex 0.9873232555019317 2.3836091938791197 -2.01
      vertex 0.7489344673165128 2.4689060661890987 2.01
      vertex 0.9873232555019317 2.3836091938791197 2.01
    endloop
  endfacet
  facet normal 0.4275550934302809 0.9039892931234439 0
    outer loop
      vertex 1.2162035810110738 2.2753568620187563 -2.01
      vertex 0.9873232555019317 2.3836091938791197 2.01
      vertex 1.2162035810110738 2.2753568620187563 2.01
    endloop
  endfacet
  facet normal 0 0 1
    outer loop
      vertex -0.5033330308016108 2.5304260234403344 2.01
      vertex 0.912213422358036 1.5799999982118607 2.01
      vertex -0.25288422205026634 2.5675765948142684 2.01
    endloop
  endfacet
  facet normal 0 0 1
    outer loop
      vertex -0.25288422205026634 2.5675765948142684 2.01
      vertex 0.912213422358036 1.5799999982118607 2.01
      vertex 0 2.58 2.01
    endloop
  endfacet
  facet normal 0 0 1
    outer loop
      vertex 0 2.58 2.01
      vertex 0.912213422358036 1.5799999982118607 2.01
      vertex 0.25288422205026634 2.5675765948142684 2.01
    endloop
  endfacet
  facet normal 0 0 1
    outer loop
      vertex 0.25288422205026634 2.5675765948142684 2.01
      vertex 0.912213422358036 1.5799999982118607 2.01
      vertex 0.5033330308016108 2.5304260234403344 2.01
    endloop
  endfacet
  facet normal 0 0 1
    outer loop
      vertex 0.9873232555019317 2.3836091938791197 2.01
      vertex 0.912213422358036 1.5799999982118607 2.01
      vertex 1.8244268521666527 0 2.01
    endloop
  endfacet
  facet normal 0 0 1
    outer loop
      vertex 0.5033330308016108 2.5304260234403344 2.01
      vertex 0.912213422358036 1.5799999982118607 2.01
      vertex 0.7489344673165128 2.4689060661890987 2.01
    endloop
  endfacet
  facet normal 0 0 1
    outer loop
      vertex 0.7489344673165128 2.4689060661890987 2.01
      vertex 0.912213422358036 1.5799999982118607 2.01
      vertex 0.9873232555019317 2.3836091938791197 2.01
    endloop
  endfacet
  facet normal 0.9987954562051725 0.049067674327416724 0
    outer loop
      vertex 2.5675765948142684 0.25288422205026634 -2.01
      vertex 2.5675765948142684 0.25288422205026634 2.01
      vertex 2.58 0 2.01
    endloop
  endfacet
  facet normal 0.9891765099647808 0.14673047445536394 0
    outer loop
      vertex 2.5304260234403344 0.5033330308016108 -2.01
      vertex 2.5304260234403344 0.5033330308016108 2.01
      vertex 2.5675765948142684 0.25288422205026634 2.01
    endloop
  endfacet
  facet normal 0.9415440651830209 0.33688985339221955 0
    outer loop
      vertex 2.3836091938791197 0.9873232555019317 -2.01
      vertex 2.3836091938791197 0.9873232555019317 2.01
      vertex 2.4689060661890987 0.7489344673165128 2.01
    endloop
  endfacet
  facet normal 0.9700312531945439 0.24298017990326395 0
    outer loop
      vertex 2.4689060661890987 0.7489344673165128 -2.01
      vertex 2.4689060661890987 0.7489344673165128 2.01
      vertex 2.5304260234403344 0.5033330308016108 2.01
    endloop
  endfacet
  facet normal 0.9039892931234439 0.4275550934302809 0
    outer loop
      vertex 2.2753568620187563 1.2162035810110738 -2.01
      vertex 2.2753568620187563 1.2162035810110738 2.01
      vertex 2.3836091938791197 0.9873232555019317 2.01
    endloop
  endfacet
  facet normal 0 0 1
    outer loop
      vertex 1.9943669696758615 -1.6367346731422054 2.01
      vertex 1.8243354954612927 1.8243354954612927 2.01
      vertex 1.8244268521666527 0 2.01
    endloop
  endfacet
  facet normal 0 0 1
    outer loop
      vertex 1.8243354954612927 1.8243354954612927 2.01
      vertex 1.6367346731422054 1.9943669696758615 2.01
      vertex 1.8244268521666527 0 2.01
    endloop
  endfacet
  facet normal 0 0 1
    outer loop
      vertex 1.9943669696758615 -1.6367346731422054 2.01
      vertex 1.9943669696758615 1.6367346731422054 2.01
      vertex 1.8243354954612927 1.8243354954612927 2.01
    endloop
  endfacet
  facet normal 0 0 1
    outer loop
      vertex 2.1451915997405666 -1.4333712011905737 2.01
      vertex 2.1451915997405666 1.4333712011905737 2.01
      vertex 1.9943669696758615 1.6367346731422054 2.01
    endloop
  endfacet
  facet normal 0 0 1
    outer loop
      vertex 2.2753568620187563 -1.2162035810110738 2.01
      vertex 2.2753568620187563 1.2162035810110738 2.01
      vertex 2.1451915997405666 1.4333712011905737 2.01
    endloop
  endfacet
  facet normal 0 0 1
    outer loop
      vertex 2.5675765948142684 -0.25288422205026634 2.01
      vertex 2.58 0 2.01
      vertex 2.5675765948142684 0.25288422205026634 2.01
    endloop
  endfacet
  facet normal 0 0 1
    outer loop
      vertex 2.5675765948142684 -0.25288422205026634 2.01
      vertex 2.5675765948142684 0.25288422205026634 2.01
      vertex 2.5304260234403344 0.5033330308016108 2.01
    endloop
  endfacet
  facet normal 0 0 1
    outer loop
      vertex 2.5304260234403344 -0.5033330308016108 2.01
      vertex 2.5304260234403344 0.5033330308016108 2.01
      vertex 2.4689060661890987 0.7489344673165128 2.01
    endloop
  endfacet
  facet normal 0 0 1
    outer loop
      vertex 2.3836091938791197 -0.9873232555019317 2.01
      vertex 2.3836091938791197 0.9873232555019317 2.01
      vertex 2.2753568620187563 1.2162035810110738 2.01
    endloop
  endfacet
  facet normal 0 0 1
    outer loop
      vertex 2.4689060661890987 -0.7489344673165128 2.01
      vertex 2.4689060661890987 0.7489344673165128 2.01
      vertex 2.3836091938791197 0.9873232555019317 2.01
    endloop
  endfacet
  facet normal 0.6715589548470184 0.7409511253549591 0
    outer loop
      vertex 1.8243354954612927 1.8243354954612927 -2.01
      vertex 1.6367346731422054 1.9943669696758615 2.01
      vertex 1.8243354954612927 1.8243354954612927 2.01
    endloop
  endfacet
  facet normal 0.7409511253549591 0.6715589548470184 0
    outer loop
      vertex 1.8243354954612927 1.8243354954612927 -2.01
      vertex 1.8243354954612927 1.8243354954612927 2.01
      vertex 1.9943669696758615 1.6367346731422054 2.01
    endloop
  endfacet
  facet normal 0.5141027441932229 0.8577286100002715 0
    outer loop
      vertex 1.4333712011905737 2.1451915997405666 -2.01
      vertex 1.2162035810110738 2.2753568620187563 2.01
      vertex 1.4333712011905737 2.1451915997405666 2.01
    endloop
  endfacet
  facet normal 0.5956993044924326 0.8032075314806454 0
    outer loop
      vertex 1.6367346731422054 1.9943669696758615 -2.01
      vertex 1.4333712011905737 2.1451915997405666 2.01
      vertex 1.6367346731422054 1.9943669696758615 2.01
    endloop
  endfacet
  facet normal 0.8032075314806454 0.5956993044924326 0
    outer loop
      vertex 1.9943669696758615 1.6367346731422054 -2.01
      vertex 1.9943669696758615 1.6367346731422054 2.01
      vertex 2.1451915997405666 1.4333712011905737 2.01
    endloop
  endfacet
  facet normal 0.8577286100002715 0.5141027441932229 0
    outer loop
      vertex 2.1451915997405666 1.4333712011905737 -2.01
      vertex 2.1451915997405666 1.4333712011905737 2.01
      vertex 2.2753568620187563 1.2162035810110738 2.01
    endloop
  endfacet
  facet normal 0 0 1
    outer loop
      vertex 0.9873232555019317 2.3836091938791197 2.01
      vertex 1.8244268521666527 0 2.01
      vertex 1.2162035810110738 2.2753568620187563 2.01
    endloop
  endfacet
  facet normal 0 0 1
    outer loop
      vertex 1.2162035810110738 2.2753568620187563 2.01
      vertex 1.8244268521666527 0 2.01
      vertex 1.4333712011905737 2.1451915997405666 2.01
    endloop
  endfacet
  facet normal 0 0 1
    outer loop
      vertex 1.4333712011905737 2.1451915997405666 2.01
      vertex 1.8244268521666527 0 2.01
      vertex 1.6367346731422054 1.9943669696758615 2.01
    endloop
  endfacet
  facet normal 0.866025402473982 0.5000000022697775 0
    outer loop
      vertex -0.912213422358036 -1.5799999982118607 -2.01
      vertex -1.8244268521666527 0 -2.01
      vertex -1.8244268521666527 0 2.01
    endloop
  endfacet
  facet normal 0 1 0
    outer loop
      vertex 0.912213422358036 -1.5799999982118607 -2.01
      vertex -0.912213422358036 -1.5799999982118607 -2.01
      vertex -0.912213422358036 -1.5799999982118607 2.01
    endloop
  endfacet
  facet normal 0.866025402473982 0.5000000022697775 0
    outer loop
      vertex -1.8244268521666527 0 2.01
      vertex -0.912213422358036 -1.5799999982118607 2.01
      vertex -0.912213422358036 -1.5799999982118607 -2.01
    endloop
  endfacet
  facet normal 0.866025402473982 -0.5000000022697775 0
    outer loop
      vertex -1.8244268521666527 0 -2.01
      vertex -0.912213422358036 1.5799999982118607 -2.01
      vertex -0.912213422358036 1.5799999982118607 2.01
    endloop
  endfacet
  facet normal 0.866025402473982 -0.5000000022697775 0
    outer loop
      vertex -0.912213422358036 1.5799999982118607 2.01
      vertex -1.8244268521666527 0 2.01
      vertex -1.8244268521666527 0 -2.01
    endloop
  endfacet
  facet normal 0 -1 0
    outer loop
      vertex 0.912213422358036 1.5799999982118607 2.01
      vertex -0.912213422358036 1.5799999982118607 2.01
      vertex -0.912213422358036 1.5799999982118607 -2.01
    endloop
  endfacet
  facet normal -0.866025402473982 0.5000000022697775 0
    outer loop
      vertex 1.8244268521666527 0 -2.01
      vertex 0.912213422358036 -1.5799999982118607 -2.01
      vertex 0.912213422358036 -1.5799999982118607 2.01
    endloop
  endfacet
  facet normal 0 1 0
    outer loop
      vertex -0.912213422358036 -1.5799999982118607 2.01
      vertex 0.912213422358036 -1.5799999982118607 2.01
      vertex 0.912213422358036 -1.5799999982118607 -2.01
    endloop
  endfacet
  facet normal -0.866025402473982 0.5000000022697775 0
    outer loop
      vertex 0.912213422358036 -1.5799999982118607 2.01
      vertex 1.8244268521666527 0 2.01
      vertex 1.8244268521666527 0 -2.01
    endloop
  endfacet
  facet normal 0 -1 0
    outer loop
      vertex -0.912213422358036 1.5799999982118607 -2.01
      vertex 0.912213422358036 1.5799999982118607 -2.01
      vertex 0.912213422358036 1.5799999982118607 2.01
    endloop
  endfacet
  facet normal -0.866025402473982 -0.5000000022697775 0
    outer loop
      vertex 0.912213422358036 1.5799999982118607 -2.01
      vertex 1.8244268521666527 0 -2.01
      vertex 1.8244268521666527 0 2.01
    endloop
  endfacet
  facet normal -0.866025402473982 -0.5000000022697775 0
    outer loop
      vertex 1.8244268521666527 0 2.01
      vertex 0.912213422358036 1.5799999982118607 2.01
      vertex 0.912213422358036 1.5799999982118607 -2.01
    endloop
  endfacet
endsolid OpenSCAD_Model
